<svg width="44" height="44" viewBox="0 0 44 44" fill="none" xmlns="http://www.w3.org/2000/svg">
<circle cx="22" cy="22" r="22" fill="white" fill-opacity="0.13"/>
<path d="M14.5 17H16.1667H29.5" stroke="white" stroke-width="1.5" stroke-linecap="round" stroke-linejoin="round"/>
<path d="M18.6667 17V15.3333C18.6667 14.8913 18.8423 14.4674 19.1548 14.1548C19.4674 13.8423 19.8913 13.6667 20.3333 13.6667H23.6667C24.1087 13.6667 24.5326 13.8423 24.8452 14.1548C25.1577 14.4674 25.3333 14.8913 25.3333 15.3333V17M27.8333 17V28.6667C27.8333 29.1087 27.6577 29.5326 27.3452 29.8452C27.0326 30.1577 26.6087 30.3333 26.1667 30.3333H17.8333C17.3913 30.3333 16.9674 30.1577 16.6548 29.8452C16.3423 29.5326 16.1667 29.1087 16.1667 28.6667V17H27.8333Z" stroke="white" stroke-width="1.5" stroke-linecap="round" stroke-linejoin="round"/>
<path d="M20.3333 21.1667V26.1667" stroke="white" stroke-width="1.5" stroke-linecap="round" stroke-linejoin="round"/>
<path d="M23.6667 21.1667V26.1667" stroke="white" stroke-width="1.5" stroke-linecap="round" stroke-linejoin="round"/>
</svg>
