<svg width="141" height="135" viewBox="0 0 141 135" fill="none" xmlns="http://www.w3.org/2000/svg">
<path d="M3.32387 0C2.44263 0.000989869 1.59776 0.351502 0.974628 0.974635C0.351496 1.59777 0.000989869 2.44263 0 3.32387V114.398C0.000989869 115.28 0.351496 116.124 0.974628 116.748C1.59776 117.371 2.44263 117.721 3.32387 117.722H88.0018C88.8831 117.721 89.7279 117.371 90.3511 116.748C90.9742 116.124 91.3247 115.28 91.3257 114.398V3.32387C91.3247 2.44263 90.9742 1.59777 90.3511 0.974638C89.7279 0.351507 88.8831 0.000994401 88.0018 0H3.32387Z" fill="#E6E6E6"/>
<path d="M85.4592 44.6803H5.86668C4.92859 44.6792 4.02922 44.3061 3.36589 43.6428C2.70255 42.9794 2.32943 42.0801 2.32837 41.142V18.4595C2.32943 17.5214 2.70255 16.622 3.36589 15.9587C4.02922 15.2953 4.92859 14.9222 5.86668 14.9211H85.4592C86.3973 14.9222 87.2967 15.2953 87.96 15.9586C88.6233 16.622 88.9965 17.5214 88.9975 18.4595V41.142C88.9965 42.0801 88.6233 42.9795 87.96 43.6428C87.2967 44.3061 86.3973 44.6792 85.4592 44.6803Z" fill="white"/>
<path d="M85.4592 79.3107H5.86668C4.92859 79.3097 4.02923 78.9365 3.36589 78.2732C2.70256 77.6099 2.32943 76.7105 2.32837 75.7724V53.0899C2.32943 52.1518 2.70255 51.2525 3.36589 50.5891C4.02922 49.9258 4.92859 49.5527 5.86668 49.5516H85.4592C86.3973 49.5527 87.2967 49.9258 87.96 50.5891C88.6233 51.2525 88.9965 52.1518 88.9975 53.0899V75.7724C88.9965 76.7105 88.6233 77.6099 87.96 78.2732C87.2967 78.9366 86.3973 79.3097 85.4592 79.3107Z" fill="white"/>
<path d="M5.86659 84.3964C4.98535 84.3973 4.14048 84.7479 3.51735 85.371C2.89422 85.9941 2.54371 86.839 2.54272 87.7202V110.403C2.54371 111.284 2.89422 112.129 3.51735 112.752C4.14048 113.375 4.98535 113.726 5.86659 113.727H85.4589C86.3402 113.726 87.185 113.375 87.8082 112.752C88.4313 112.129 88.7818 111.284 88.7828 110.403V87.7202C88.7818 86.839 88.4313 85.9941 87.8082 85.371C87.185 84.7479 86.3402 84.3973 85.4589 84.3964H5.86659Z" fill="white"/>
<path d="M86.5897 6.91554C87.9271 6.91554 89.0114 5.83131 89.0114 4.49384C89.0114 3.15638 87.9271 2.07214 86.5897 2.07214C85.2522 2.07214 84.168 3.15638 84.168 4.49384C84.168 5.83131 85.2522 6.91554 86.5897 6.91554Z" fill="white"/>
<path d="M10.3665 66.8529C11.704 66.8529 12.7882 65.7687 12.7882 64.4312C12.7882 63.0937 11.704 62.0095 10.3665 62.0095C9.02905 62.0095 7.94482 63.0937 7.94482 64.4312C7.94482 65.7687 9.02905 66.8529 10.3665 66.8529Z" fill="#E6E6E6"/>
<path d="M38.216 66.4754H19.3268C18.7845 66.4754 18.2645 66.26 17.8811 65.8766C17.4976 65.4932 17.2822 64.9731 17.2822 64.4309C17.2822 63.8887 17.4976 63.3686 17.8811 62.9852C18.2645 62.6018 18.7845 62.3864 19.3268 62.3864H38.216C38.7582 62.3864 39.2783 62.6018 39.6617 62.9852C40.0451 63.3686 40.2605 63.8887 40.2605 64.4309C40.2605 64.9731 40.0451 65.4932 39.6617 65.8766C39.2783 66.26 38.7582 66.4754 38.216 66.4754Z" fill="#E6E6E6"/>
<path d="M53.4125 66.9738C54.7499 66.9738 55.8342 65.8895 55.8342 64.5521C55.8342 63.2146 54.7499 62.1304 53.4125 62.1304C52.075 62.1304 50.9907 63.2146 50.9907 64.5521C50.9907 65.8895 52.075 66.9738 53.4125 66.9738Z" fill="#E6E6E6"/>
<path d="M81.2617 66.5968H62.3725C61.8302 66.5968 61.3102 66.3813 60.9267 65.9979C60.5433 65.6145 60.3279 65.0944 60.3279 64.5522C60.3279 64.0099 60.5433 63.4899 60.9267 63.1064C61.3102 62.723 61.8302 62.5076 62.3725 62.5076H81.2617C81.804 62.5076 82.324 62.723 82.7075 63.1064C83.0909 63.4899 83.3063 64.0099 83.3063 64.5522C83.3063 65.0944 83.0909 65.6145 82.7075 65.9979C82.324 66.3813 81.804 66.5968 81.2617 66.5968Z" fill="#E6E6E6"/>
<path d="M87.8507 3.5755L87.5082 3.23303L86.5897 4.15171L85.6711 3.23303L85.3286 3.5755L86.2473 4.49417L85.3286 5.41263L85.6711 5.7551L86.5897 4.83642L87.5082 5.7551L87.8507 5.41263L86.9322 4.49417L87.8507 3.5755Z" fill="#E6E6E6"/>
<path d="M10.3665 32.2224C11.704 32.2224 12.7882 31.1382 12.7882 29.8007C12.7882 28.4633 11.704 27.379 10.3665 27.379C9.02906 27.379 7.94482 28.4633 7.94482 29.8007C7.94482 31.1382 9.02906 32.2224 10.3665 32.2224Z" fill="#E6E6E6"/>
<path d="M81.4437 31.6032H23.8072C23.2653 31.6027 22.7457 31.387 22.3628 31.0036C21.9798 30.6203 21.7646 30.1005 21.7646 29.5586C21.7646 29.0167 21.9798 28.497 22.3628 28.1136C22.7457 27.7303 23.2653 27.5146 23.8072 27.514H81.4437C81.9856 27.5146 82.5051 27.7303 82.8881 28.1136C83.2711 28.497 83.4862 29.0167 83.4862 29.5586C83.4862 30.1005 83.2711 30.6203 82.8881 31.0036C82.5051 31.387 81.9856 31.6027 81.4437 31.6032Z" fill="#E6E6E6"/>
<path d="M71.3934 31.6032H20.0534C19.5111 31.6032 18.9911 31.3878 18.6076 31.0044C18.2242 30.6209 18.0088 30.1009 18.0088 29.5586C18.0088 29.0164 18.2242 28.4963 18.6076 28.1129C18.9911 27.7295 19.5111 27.514 20.0534 27.514H71.3934C71.9353 27.5146 72.4548 27.7303 72.8378 28.1136C73.2208 28.497 73.4359 29.0167 73.4359 29.5586C73.4359 30.1005 73.2208 30.6203 72.8378 31.0036C72.4548 31.387 71.9353 31.6027 71.3934 31.6032Z" fill="#C96567"/>
<path d="M10.3665 101.483C11.704 101.483 12.7882 100.399 12.7882 99.0613C12.7882 97.7239 11.704 96.6396 10.3665 96.6396C9.02905 96.6396 7.94482 97.7239 7.94482 99.0613C7.94482 100.399 9.02905 101.483 10.3665 101.483Z" fill="#E6E6E6"/>
<path d="M81.4434 100.864H23.807C23.2647 100.864 22.7447 100.648 22.3613 100.265C21.9779 99.8815 21.7625 99.3614 21.7625 98.8192C21.7625 98.277 21.9779 97.7569 22.3613 97.3735C22.7447 96.9901 23.2647 96.7747 23.807 96.7747H81.4434C81.9857 96.7747 82.5057 96.9901 82.8891 97.3735C83.2726 97.7569 83.488 98.277 83.488 98.8192C83.488 99.3614 83.2726 99.8815 82.8891 100.265C82.5057 100.648 81.9857 100.864 81.4434 100.864Z" fill="#E6E6E6"/>
<path d="M50.7484 100.864H20.0533C19.5111 100.864 18.991 100.648 18.6076 100.265C18.2242 99.8815 18.0088 99.3614 18.0088 98.8192C18.0088 98.277 18.2242 97.7569 18.6076 97.3735C18.991 96.9901 19.5111 96.7747 20.0533 96.7747H50.7484C51.2906 96.7747 51.8107 96.9901 52.1941 97.3735C52.5775 97.7569 52.7929 98.277 52.7929 98.8192C52.7929 99.3614 52.5775 99.8815 52.1941 100.265C51.8107 100.648 51.2906 100.864 50.7484 100.864Z" fill="#C96567"/>
<path d="M22.6566 66.4754H19.3268C18.7845 66.4754 18.2645 66.26 17.8811 65.8766C17.4976 65.4932 17.2822 64.9731 17.2822 64.4309C17.2822 63.8887 17.4976 63.3686 17.8811 62.9852C18.2645 62.6018 18.7845 62.3864 19.3268 62.3864H22.6566C23.1989 62.3864 23.7189 62.6018 24.1023 62.9852C24.4857 63.3686 24.7011 63.8887 24.7011 64.4309C24.7011 64.9731 24.4857 65.4932 24.1023 65.8766C23.7189 66.26 23.1989 66.4754 22.6566 66.4754Z" fill="#C96567"/>
<path d="M72.7858 66.5968H62.3725C61.8302 66.5968 61.3102 66.3813 60.9267 65.9979C60.5433 65.6145 60.3279 65.0944 60.3279 64.5522C60.3279 64.0099 60.5433 63.4899 60.9267 63.1064C61.3102 62.723 61.8302 62.5076 62.3725 62.5076H72.7858C73.3277 62.5081 73.8472 62.7238 74.2302 63.1072C74.6132 63.4905 74.8283 64.0103 74.8283 64.5522C74.8283 65.0941 74.6132 65.6138 74.2302 65.9972C73.8472 66.3805 73.3277 66.5962 72.7858 66.5968Z" fill="#C96567"/>
<path d="M123.901 91.0991C124.214 91.0676 124.517 90.9676 124.788 90.8063C125.059 90.645 125.291 90.4263 125.468 90.1656C125.646 89.9049 125.763 89.6084 125.814 89.2972C125.864 88.986 125.845 88.6675 125.759 88.3643L132.037 83.9695L128.334 82.5034L122.941 86.9015C122.441 87.08 122.024 87.4357 121.769 87.9011C121.514 88.3665 121.438 88.9093 121.556 89.4267C121.675 89.9441 121.979 90.4002 122.411 90.7084C122.843 91.0166 123.373 91.1557 123.901 91.0991L123.901 91.0991Z" fill="#A0616A"/>
<path d="M126.827 87.8896C126.692 87.8893 126.559 87.8608 126.435 87.8058C126.296 87.7449 126.173 87.6515 126.076 87.5333C125.98 87.4151 125.914 87.2756 125.882 87.1265L125.461 85.1693C125.425 85.0015 125.434 84.8271 125.488 84.6641C125.542 84.5011 125.638 84.3553 125.767 84.2418L129.489 80.9638L125.815 73.2642C125.559 72.7288 125.515 72.1166 125.692 71.5502C125.868 70.9838 126.253 70.5051 126.767 70.21C127.282 69.9149 127.889 69.8253 128.467 69.9589C129.045 70.0926 129.552 70.4398 129.884 70.9309L134.591 77.8726C134.94 78.3838 135.182 78.9612 135.299 79.5693C135.417 80.1774 135.409 80.8031 135.276 81.408C135.128 82.0472 134.849 82.6488 134.457 83.1744C134.064 83.7 133.566 84.1382 132.995 84.4611L127.31 87.7583C127.163 87.844 126.997 87.8893 126.827 87.8896Z" fill="#CCCCCC"/>
<path d="M105.969 83.705C106.231 83.88 106.529 83.9955 106.84 84.0432C107.152 84.0908 107.47 84.0696 107.773 83.981C108.075 83.8924 108.355 83.7385 108.591 83.5302C108.828 83.3218 109.016 83.0642 109.142 82.7753L116.782 83.3736L114.856 79.8881L107.896 79.8544C107.397 79.6744 106.849 79.6839 106.356 79.8809C105.863 80.078 105.46 80.449 105.222 80.9236C104.985 81.3982 104.93 81.9435 105.067 82.4562C105.205 82.9688 105.526 83.4131 105.969 83.705Z" fill="#A0616A"/>
<path d="M124.239 65.455C127.148 65.455 129.506 63.0969 129.506 60.1881C129.506 57.2792 127.148 54.9211 124.239 54.9211C121.33 54.9211 118.972 57.2792 118.972 60.1881C118.972 63.0969 121.33 65.455 124.239 65.455Z" fill="#A0616A"/>
<path d="M108.731 132.24L106.211 131.49L107.904 121.414L111.623 122.521L108.731 132.24Z" fill="#A0616A"/>
<path d="M108.647 134.874L100.522 132.457L100.553 132.354C100.676 131.939 100.88 131.552 101.153 131.215C101.426 130.879 101.763 130.6 102.144 130.393C102.525 130.187 102.943 130.058 103.374 130.013C103.805 129.968 104.241 130.009 104.656 130.132L104.656 130.133L109.619 131.609L108.647 134.874Z" fill="#2F2E41"/>
<path d="M136.338 132.111L133.709 132.111L132.458 121.97L135.052 121.971L136.338 132.111Z" fill="#A0616A"/>
<path d="M137.009 134.66L128.532 134.659V134.552C128.532 134.119 128.617 133.69 128.783 133.289C128.949 132.889 129.192 132.525 129.498 132.219C129.805 131.913 130.168 131.67 130.569 131.504C130.969 131.338 131.398 131.253 131.831 131.253H131.831L137.009 131.253L137.009 134.66Z" fill="#2F2E41"/>
<path d="M109.701 129.259H107.061C106.92 129.259 106.78 129.228 106.652 129.168C106.524 129.108 106.41 129.02 106.32 128.912C106.229 128.803 106.164 128.676 106.128 128.539C106.092 128.402 106.087 128.259 106.112 128.12L109.809 107.991C109.806 93.3256 115.576 84.8314 115.634 84.7472L115.704 84.6456L126.488 85.5256L137.236 127.888C137.272 128.026 137.275 128.171 137.248 128.311C137.22 128.451 137.162 128.584 137.077 128.699C136.992 128.814 136.882 128.908 136.756 128.976C136.63 129.043 136.491 129.082 136.348 129.089L133.382 129.233C133.181 129.243 132.982 129.19 132.813 129.082C132.644 128.973 132.513 128.814 132.439 128.627L121.076 100.22C121.054 100.158 121.012 100.105 120.957 100.069C120.901 100.032 120.836 100.015 120.77 100.018C120.704 100.019 120.64 100.04 120.587 100.079C120.534 100.117 120.494 100.172 120.474 100.234L110.612 128.611C110.546 128.8 110.423 128.964 110.26 129.08C110.097 129.196 109.901 129.259 109.701 129.259Z" fill="#2F2E41"/>
<path d="M126.713 86.3765L126.631 86.3705L115.15 85.5039L117.164 72.6952C117.385 71.2654 118.062 69.9455 119.095 68.9323C120.127 67.9192 121.46 67.2671 122.894 67.0736C122.982 67.0612 123.071 67.0491 123.16 67.0373C124.287 66.8891 125.432 67.033 126.487 67.4551C127.541 67.8772 128.47 68.5634 129.183 69.4478C129.913 70.3372 130.402 71.3994 130.603 72.5324C130.804 73.6654 130.711 74.831 130.331 75.9173L126.713 86.3765Z" fill="#CCCCCC"/>
<path d="M120.873 83.0315C120.407 83.4058 119.872 83.6843 119.298 83.8512C118.724 84.0181 118.123 84.07 117.529 84.004L110.884 83.2888C110.732 83.2724 110.586 83.2202 110.458 83.1365C110.33 83.0528 110.224 82.9399 110.149 82.8072C110.073 82.6745 110.03 82.5257 110.023 82.373C110.016 82.2204 110.045 82.0683 110.109 81.9293L110.995 79.984C111.067 79.8255 111.181 79.6894 111.324 79.5903C111.467 79.4911 111.635 79.4327 111.808 79.4211L116.652 79.0965L118.242 70.7156C118.344 70.1777 118.631 69.6923 119.053 69.343C119.475 68.9937 120.005 68.8023 120.553 68.8018C120.884 68.8003 121.211 68.8693 121.513 69.0043C121.815 69.1393 122.085 69.3371 122.305 69.5846C122.721 70.0611 122.935 70.6812 122.901 71.3131L122.593 79.6222C122.572 80.2505 122.421 80.8677 122.15 81.4345C121.878 82.0013 121.491 82.5054 121.014 82.9147C120.967 82.9547 120.92 82.9936 120.873 83.0315Z" fill="#CCCCCC"/>
<path d="M120.234 58.8728C119.578 59.1272 118.887 59.2793 118.185 59.3236C117.479 59.3325 116.728 59.0879 116.342 58.5501C116.194 58.3152 116.098 58.051 116.061 57.7757C116.025 57.5003 116.048 57.2203 116.13 56.9548C116.276 56.4166 116.539 55.9174 116.901 55.4927C117.262 55.068 117.713 54.7283 118.221 54.4979C118.755 54.2559 119.331 54.1215 119.917 54.1027C120.503 54.0838 121.086 54.1808 121.634 54.3881C122.031 53.1834 123.523 52.5278 124.905 52.4907C127.727 52.415 130.25 54.3392 131.476 56.6529C132.702 58.9667 132.881 61.6115 132.958 64.1792C132.976 64.8054 132.984 65.4584 132.687 66.0237C132.246 66.8656 131.242 67.3189 130.296 67.6784C127.815 68.6197 125.255 69.3392 122.647 69.8284C123.899 69.028 124.297 67.3052 123.503 66.1144C123.115 65.5318 122.478 65.0468 122.375 64.372C122.251 63.563 122.942 62.8554 123.197 62.0723C123.326 61.6484 123.332 61.1965 123.214 60.7693C123.096 60.3422 122.859 59.9574 122.53 59.6598C122.173 59.3493 121.745 59.13 121.285 59.0207C120.824 58.9115 120.344 58.9155 119.885 59.0325" fill="#2F2E41"/>
<path d="M140.635 135H96.2457C96.1888 135 96.1343 134.978 96.094 134.937C96.0538 134.897 96.0312 134.843 96.0312 134.786C96.0312 134.729 96.0538 134.674 96.094 134.634C96.1343 134.594 96.1888 134.571 96.2457 134.571H140.635C140.692 134.571 140.747 134.594 140.787 134.634C140.827 134.674 140.85 134.729 140.85 134.786C140.85 134.843 140.827 134.897 140.787 134.937C140.747 134.978 140.692 135 140.635 135Z" fill="#CCCCCC"/>
</svg>
