<svg width="160" height="136" viewBox="0 0 160 136" fill="none" xmlns="http://www.w3.org/2000/svg">
<path d="M93.9595 34.8471H89.2159C88.9741 34.8468 88.7422 34.7506 88.5712 34.5796C88.4002 34.4086 88.304 34.1767 88.3037 33.9349V29.1913C88.304 28.9494 88.4002 28.7176 88.5712 28.5465C88.7422 28.3755 88.9741 28.2793 89.2159 28.2791H93.9595C94.2014 28.2793 94.4333 28.3755 94.6043 28.5465C94.7753 28.7176 94.8715 28.9494 94.8718 29.1913V33.9349C94.8715 34.1767 94.7753 34.4086 94.6043 34.5796C94.4333 34.7506 94.2014 34.8468 93.9595 34.8471ZM89.2159 28.6439C89.0708 28.6441 88.9317 28.7018 88.8291 28.8044C88.7265 28.907 88.6688 29.0462 88.6686 29.1913V33.9349C88.6688 34.08 88.7265 34.2191 88.8291 34.3217C88.9317 34.4243 89.0708 34.4821 89.2159 34.4822H93.9595C94.1046 34.4821 94.2438 34.4243 94.3464 34.3217C94.449 34.2191 94.5067 34.08 94.5069 33.9349V29.1913C94.5067 29.0462 94.449 28.907 94.3464 28.8044C94.2438 28.7018 94.1046 28.6441 93.9595 28.6439H89.2159Z" fill="#E6E6E6"/>
<path d="M38.6785 6.56805H33.9349C33.6931 6.56777 33.4612 6.47158 33.2902 6.30056C33.1192 6.12954 33.023 5.89767 33.0227 5.65582V0.912229C33.023 0.670376 33.1192 0.438508 33.2902 0.267491C33.4612 0.0964751 33.6931 0.000276689 33.9349 0H38.6785C38.9204 0.000276689 39.1522 0.0964751 39.3233 0.267491C39.4943 0.438508 39.5905 0.670376 39.5908 0.912229V5.65582C39.5905 5.89767 39.4943 6.12954 39.3233 6.30056C39.1522 6.47158 38.9204 6.56777 38.6785 6.56805ZM33.9349 0.364892C33.7898 0.36505 33.6507 0.422767 33.5481 0.525378C33.4455 0.62799 33.3878 0.767115 33.3876 0.912229V5.65582C33.3878 5.80094 33.4455 5.94006 33.5481 6.04267C33.6507 6.14528 33.7898 6.203 33.9349 6.20316H38.6785C38.8236 6.203 38.9628 6.14528 39.0654 6.04267C39.168 5.94006 39.2257 5.80094 39.2259 5.65582V0.912229C39.2257 0.767115 39.168 0.62799 39.0654 0.525378C38.9628 0.422767 38.8236 0.36505 38.6785 0.364892H33.9349Z" fill="#E6E6E6"/>
<path d="M91.0406 32.4754H86.297C86.0551 32.4751 85.8233 32.3789 85.6523 32.2079C85.4812 32.0369 85.385 31.805 85.3848 31.5632V26.8196C85.385 26.5777 85.4812 26.3459 85.6523 26.1748C85.8233 26.0038 86.0551 25.9076 86.297 25.9073H91.0406C91.2824 25.9076 91.5143 26.0038 91.6853 26.1748C91.8563 26.3459 91.9525 26.5777 91.9528 26.8196V31.5632C91.9525 31.805 91.8563 32.0369 91.6853 32.2079C91.5143 32.3789 91.2824 32.4751 91.0406 32.4754ZM86.297 26.2722C86.1519 26.2724 86.0128 26.3301 85.9101 26.4327C85.8075 26.5353 85.7498 26.6745 85.7497 26.8196V31.5632C85.7498 31.7083 85.8075 31.8474 85.9101 31.95C86.0128 32.0526 86.1519 32.1103 86.297 32.1105H91.0406C91.1857 32.1103 91.3248 32.0526 91.4274 31.95C91.53 31.8474 91.5878 31.7083 91.5879 31.5632V26.8196C91.5878 26.6745 91.53 26.5353 91.4274 26.4327C91.3248 26.3301 91.1857 26.2724 91.0406 26.2722H86.297Z" fill="#E6E6E6"/>
<path d="M8.57501 72.0661H3.83142C3.58957 72.0658 3.3577 71.9696 3.18668 71.7986C3.01566 71.6276 2.91947 71.3957 2.91919 71.1539V66.4103C2.91947 66.1684 3.01566 65.9366 3.18668 65.7655C3.3577 65.5945 3.58957 65.4983 3.83142 65.498H8.57501C8.81686 65.4983 9.04873 65.5945 9.21975 65.7655C9.39077 65.9366 9.48696 66.1684 9.48724 66.4103V71.1539C9.48696 71.3957 9.39077 71.6276 9.21975 71.7986C9.04873 71.9696 8.81686 72.0658 8.57501 72.0661ZM3.83142 65.8629C3.6863 65.8631 3.54718 65.9208 3.44457 66.0234C3.34196 66.126 3.28424 66.2652 3.28408 66.4103V71.1539C3.28424 71.299 3.34196 71.4381 3.44457 71.5407C3.54718 71.6433 3.6863 71.7011 3.83142 71.7012H8.57501C8.72013 71.7011 8.85925 71.6433 8.96186 71.5407C9.06447 71.4381 9.12219 71.299 9.12235 71.1539V66.4103C9.12219 66.2652 9.06447 66.126 8.96186 66.0234C8.85925 65.9208 8.72013 65.8631 8.57501 65.8629H3.83142Z" fill="#E6E6E6"/>
<path d="M5.65582 69.6943H0.912229C0.670376 69.694 0.438508 69.5978 0.267491 69.4268C0.0964751 69.2558 0.000276689 69.0239 0 68.782V64.0384C0.000276689 63.7966 0.0964751 63.5647 0.267491 63.3937C0.438508 63.2227 0.670376 63.1265 0.912229 63.1262H5.65582C5.89768 63.1265 6.12954 63.2227 6.30056 63.3937C6.47158 63.5647 6.56778 63.7966 6.56805 64.0384V68.782C6.56778 69.0239 6.47158 69.2558 6.30056 69.4268C6.12954 69.5978 5.89768 69.694 5.65582 69.6943ZM0.912229 63.4911C0.767115 63.4913 0.62799 63.549 0.525378 63.6516C0.422767 63.7542 0.36505 63.8933 0.364892 64.0384V68.782C0.36505 68.9271 0.422767 69.0663 0.525378 69.1689C0.62799 69.2715 0.767115 69.3292 0.912229 69.3294H5.65582C5.80094 69.3292 5.94006 69.2715 6.04267 69.1689C6.14529 69.0663 6.203 68.9271 6.20316 68.782V64.0384C6.203 63.8933 6.14529 63.7542 6.04267 63.6516C5.94006 63.549 5.80094 63.4913 5.65582 63.4911H0.912229Z" fill="#E6E6E6"/>
<path d="M16.8633 15.6973H60.7626C62.881 15.6973 64.9363 16.4181 66.5908 17.741C68.2452 19.064 69.4003 20.9105 69.8662 22.977L92.0477 121.364C92.2896 122.437 92.2939 123.55 92.0602 124.625C91.8265 125.7 91.3604 126.711 90.6947 127.587C90.0291 128.463 89.1799 129.182 88.2067 129.695C87.2335 130.208 86.1599 130.502 85.0611 130.556L39.9324 132.78C37.5159 132.899 35.1386 132.134 33.2441 130.63C31.3497 129.125 30.0675 126.982 29.6369 124.601L17.0542 55.0403L16.1181 55.3078L13.7105 42.1234L14.6741 41.8825L11.1618 22.4656C11.0114 21.6339 11.0463 20.7793 11.264 19.9627C11.4817 19.1461 11.8769 18.3875 12.4214 17.7411C12.9659 17.0947 13.6463 16.5764 14.4141 16.2232C15.1819 15.8699 16.0182 15.6904 16.8633 15.6973V15.6973Z" fill="#3F3D56"/>
<path d="M54.9834 17.8184H60.1078C61.5794 17.8184 63.0068 18.3217 64.1529 19.2447C65.2991 20.1677 66.0951 21.455 66.4088 22.8928L87.6999 120.477C87.8225 121.039 87.8224 121.621 87.6996 122.182C87.5768 122.744 87.3342 123.273 86.9883 123.732C86.6425 124.192 86.2015 124.571 85.6956 124.845C85.1897 125.118 84.6308 125.279 84.057 125.317L39.0742 128.265C37.8051 128.348 36.5499 127.961 35.548 127.178C34.5461 126.394 33.8677 125.27 33.6423 124.018L15.4744 23.1549C15.3568 22.5021 15.3839 21.8314 15.5538 21.1902C15.7237 20.549 16.0323 19.9529 16.4578 19.444C16.8832 18.9351 17.4152 18.5257 18.0161 18.2448C18.617 17.964 19.2723 17.8184 19.9356 17.8184H24.7969C25.2674 17.8184 25.7247 17.9735 26.0982 18.2597C26.4716 18.5459 26.7403 18.9472 26.8626 19.4015C26.9706 19.8026 27.2078 20.1569 27.5375 20.4096C27.8672 20.6622 28.271 20.7992 28.6864 20.7992H51.7645C52.5779 20.7992 53.3613 20.4922 53.9581 19.9395C54.5548 19.3869 54.921 18.6293 54.9834 17.8184L54.9834 17.8184Z" fill="white"/>
<path d="M18.9744 34.4104H67.7743L72.9731 57.8354L23.5355 58.7476L18.9744 34.4104Z" fill="#C96567"/>
<path d="M65.3157 78.7717H76.8045L77.1694 80.9711H65.6806L65.3157 78.7717Z" fill="#C96567"/>
<path d="M74.6633 67.5517L25.9385 68.5835L25.9433 68.8128L74.6682 67.781L74.6633 67.5517Z" fill="#314455"/>
<path d="M76.1535 74.3158L26.5115 75.4623L26.5168 75.6916L76.1588 74.5451L76.1535 74.3158Z" fill="#314455"/>
<path d="M70.0591 102.307H81.5479L81.9128 104.507H70.424L70.0591 102.307Z" fill="#C96567"/>
<path d="M79.4067 91.0872L30.6819 92.119L30.6867 92.3483L79.4116 91.3165L79.4067 91.0872Z" fill="#314455"/>
<path d="M80.8969 97.8515L31.2549 98.9979L31.2602 99.2272L80.9022 98.0807L80.8969 97.8515Z" fill="#314455"/>
<path d="M112.306 133.406L110.132 133.406L109.098 125.021L112.307 125.021L112.306 133.406Z" fill="#A0616A"/>
<path d="M112.861 135.513L105.851 135.513V135.424C105.851 134.7 106.139 134.007 106.65 133.495C107.162 132.983 107.856 132.696 108.58 132.696H108.58L112.861 132.696L112.861 135.513Z" fill="#314455"/>
<path d="M139.311 131.982L137.195 132.48L134.267 124.556L137.39 123.821L139.311 131.982Z" fill="#A0616A"/>
<path d="M140.334 133.906L133.511 135.513L133.491 135.427C133.325 134.722 133.446 133.981 133.826 133.366C134.207 132.75 134.817 132.312 135.521 132.146L135.521 132.146L139.688 131.164L140.334 133.906Z" fill="#314455"/>
<path d="M111.862 98.0403C111.866 97.6033 111.996 87.2914 114.822 83.3924L114.864 83.3348L124.715 84.6938L124.495 86.8581C124.928 87.2796 128.336 90.8409 129.32 99.2742L139.776 127.355L134.915 127.797L120.526 97.1431L112.912 130.464H108.093L111.862 98.0403Z" fill="#314455"/>
<path d="M113.668 83.7728L114.631 78.7175C114.443 78.4749 113.608 77.3096 113.794 75.9437C113.915 75.0525 114.447 74.2711 115.375 73.6205L117.871 67.7968L117.905 67.7771C118.073 67.678 122.046 65.3801 124.213 67.5481C124.267 67.5901 129.601 71.8243 127.459 77.5362L124.815 85.47L113.668 83.7728Z" fill="#CCCCCC"/>
<path d="M110.318 90.6121C110.578 90.5824 110.828 90.4962 111.05 90.3594C111.273 90.2227 111.463 90.0388 111.607 89.8207C111.751 89.6025 111.845 89.3555 111.884 89.097C111.922 88.8384 111.903 88.5747 111.828 88.3243L116.982 84.6108L113.897 83.4371L109.475 87.1435C109.063 87.2971 108.721 87.5965 108.515 87.9852C108.309 88.3738 108.252 88.8247 108.356 89.2522C108.46 89.6798 108.717 90.0543 109.079 90.305C109.44 90.5556 109.881 90.6649 110.318 90.6121Z" fill="#A0616A"/>
<path d="M111.266 84.6048L119.135 78.4051L116.795 70.4124C116.685 70.034 116.654 69.6369 116.704 69.2458C116.753 68.8548 116.883 68.4782 117.085 68.1396C117.272 67.8203 117.523 67.5436 117.823 67.3271C118.123 67.1106 118.465 66.9591 118.827 66.8824C120.174 66.5974 121.397 67.3516 122.461 69.1247L122.469 69.1407C122.645 69.5709 126.744 79.7045 123.614 81.8715C120.552 83.9913 113.452 87.0771 113.38 87.1082L113.297 87.1442L111.266 84.6048Z" fill="#CCCCCC"/>
<path d="M121.724 65.4404C124.356 65.4404 126.491 63.3062 126.491 60.6735C126.491 58.0408 124.356 55.9066 121.724 55.9066C119.091 55.9066 116.957 58.0408 116.957 60.6735C116.957 63.3062 119.091 65.4404 121.724 65.4404Z" fill="#A0616A"/>
<path d="M129.197 58.9717C131.526 58.9717 133.414 57.0836 133.414 54.7546C133.414 52.4255 131.526 50.5375 129.197 50.5375C126.868 50.5375 124.98 52.4255 124.98 54.7546C124.98 57.0836 126.868 58.9717 129.197 58.9717Z" fill="#314455"/>
<path d="M132.834 58.2466C132.289 58.6411 131.656 58.8992 130.99 58.9992C130.324 59.0992 129.644 59.0382 129.006 58.8214C128.369 58.6046 127.792 58.2383 127.325 57.753C126.858 57.2678 126.514 56.6777 126.322 56.0323C126.395 56.6107 126.587 57.1678 126.886 57.6683C127.184 58.1688 127.584 58.6019 128.059 58.9403C128.533 59.2787 129.073 59.515 129.644 59.6342C130.214 59.7535 130.804 59.7531 131.374 59.6332C131.945 59.5133 132.484 59.2764 132.958 58.9374C133.433 58.5985 133.832 58.1649 134.13 57.664C134.428 57.1631 134.619 56.6058 134.691 56.0273C134.763 55.4488 134.715 54.8616 134.548 54.3029C134.643 55.0535 134.534 55.8158 134.232 56.5097C133.93 57.2036 133.448 57.8036 132.834 58.2466Z" fill="#314455"/>
<path d="M116.192 58.2514C116.928 56.9333 117.21 56.3828 118.159 55.5813C118.998 54.8725 120.031 54.6643 120.864 55.336C121.849 54.9103 122.945 54.8138 123.99 55.0607C125.034 55.3077 125.971 55.885 126.661 56.7068C127.351 57.5287 127.758 58.5512 127.821 59.6226C127.884 60.694 127.599 61.757 127.01 62.6539C126.42 63.5507 125.557 64.2334 124.549 64.6006C123.54 64.9679 122.44 65.0001 121.412 64.6923C120.384 64.3846 119.482 63.7535 118.841 62.8926C118.201 62.0318 117.854 60.9872 117.854 59.9139C117.855 59.7255 117.867 59.5372 117.888 59.35C117.165 59.2483 116.916 58.353 116.192 58.2514Z" fill="#314455"/>
<path d="M159.818 135.74H90.3057C90.2573 135.74 90.2109 135.721 90.1767 135.686C90.1425 135.652 90.1233 135.606 90.1233 135.557C90.1233 135.509 90.1425 135.463 90.1767 135.428C90.2109 135.394 90.2573 135.375 90.3057 135.375H159.818C159.866 135.375 159.912 135.394 159.947 135.428C159.981 135.463 160 135.509 160 135.557C160 135.606 159.981 135.652 159.947 135.686C159.912 135.721 159.866 135.74 159.818 135.74Z" fill="#3F3D56"/>
</svg>
