<svg width="24" height="24" viewBox="0 0 24 24" fill="none" xmlns="http://www.w3.org/2000/svg">
<path d="M20.5696 6.53215C20.3215 6.1522 19.9683 5.8526 19.553 5.66985C19.1377 5.4871 18.6781 5.4291 18.2304 5.50291C17.5076 5.61052 16.7695 5.47325 16.1337 5.11295C15.4978 4.75265 15.0008 4.19001 14.7217 3.51461C14.5581 3.08946 14.274 2.72132 13.9041 2.45538C13.5343 2.18944 13.0949 2.03726 12.6398 2.01753C12.301 1.99416 11.961 1.99416 11.6222 2.01753C11.1699 2.04265 10.7345 2.19861 10.3691 2.46644C10.0037 2.73428 9.7239 3.10248 9.56376 3.5263C9.29211 4.20106 8.80205 4.76525 8.17194 5.12864C7.54703 5.49299 6.81936 5.64099 6.10177 5.54969C5.65054 5.47939 5.18859 5.54272 4.77292 5.73185C4.35725 5.92098 4.00603 6.22764 3.76259 6.61402C3.5612 6.92699 3.37767 7.25109 3.21288 7.58478C3.03041 7.98272 2.96327 8.42387 3.0191 8.85807C3.07492 9.29227 3.25147 9.70209 3.52867 10.0409C3.96353 10.6094 4.20531 11.3019 4.21873 12.0175C4.219 12.7426 3.97602 13.4469 3.52867 14.0175C3.253 14.3599 3.07936 14.7729 3.02765 15.2094C2.97593 15.6459 3.04824 16.0881 3.23627 16.4854C3.32984 16.6725 3.42341 16.8479 3.52867 17.0234C3.63393 17.1988 3.70411 17.3275 3.79767 17.4678C4.04574 17.8478 4.39895 18.1474 4.81429 18.3301C5.22962 18.5129 5.68914 18.5709 6.13686 18.4971C6.85971 18.3895 7.59779 18.5267 8.23362 18.887C8.86945 19.2473 9.36649 19.81 9.64563 20.4854C9.80919 20.9105 10.0933 21.2786 10.4631 21.5446C10.833 21.8105 11.2724 21.9627 11.7275 21.9824C12.0663 22.0059 12.4063 22.0059 12.745 21.9824C13.2015 21.9618 13.6419 21.8079 14.0119 21.5397C14.3818 21.2716 14.6652 20.901 14.8269 20.4737C15.0986 19.7989 15.5886 19.2347 16.2187 18.8713C16.8436 18.507 17.5713 18.359 18.2889 18.4503C18.7401 18.5206 19.2021 18.4573 19.6177 18.2681C20.0334 18.079 20.3846 17.7723 20.6281 17.386C20.8295 17.073 21.013 16.7489 21.1778 16.4152C21.3603 16.0173 21.4274 15.5761 21.3716 15.1419C21.3157 14.7077 21.1392 14.2979 20.862 13.959C20.4158 13.3825 20.1695 12.6763 20.1602 11.9474C20.16 11.2222 20.403 10.518 20.8503 9.94735C21.126 9.60502 21.2996 9.19195 21.3513 8.75548C21.403 8.319 21.3307 7.87679 21.1427 7.47952C21.0491 7.29238 20.9556 7.11694 20.8503 6.94151C20.745 6.76607 20.6632 6.6725 20.5696 6.53215Z" stroke="#1C1D21" stroke-width="1.5" stroke-linecap="round" stroke-linejoin="round"/>
<path d="M12 15C13.6569 15 15 13.6569 15 12C15 10.3431 13.6569 9 12 9C10.3431 9 9 10.3431 9 12C9 13.6569 10.3431 15 12 15Z" stroke="#1C1D21" stroke-width="1.5" stroke-linecap="round" stroke-linejoin="round"/>
</svg>
