<svg width="12" height="12" viewBox="0 0 12 12" fill="none" xmlns="http://www.w3.org/2000/svg">
<path d="M8.32615 1.8738L10.1268 3.675L10.4268 3.375C10.5481 3.25742 10.6449 3.11687 10.7114 2.96154C10.7779 2.80621 10.8128 2.63919 10.8142 2.47023C10.8155 2.30126 10.7832 2.13371 10.7192 1.97735C10.6551 1.82098 10.5606 1.67892 10.4411 1.55944C10.3216 1.43996 10.1796 1.34545 10.0232 1.2814C9.86683 1.21735 9.69929 1.18506 9.53032 1.1864C9.36135 1.18773 9.19434 1.22267 9.03901 1.28918C8.88368 1.35569 8.74313 1.45244 8.62555 1.5738L8.32555 1.8738H8.32615ZM9.29995 4.5L7.49875 2.6988L1.78435 8.4138L1.19995 10.7994L3.58555 10.215L9.29995 4.5Z" fill="#838F99"/>
</svg>
