<svg width="143" height="136" viewBox="0 0 143 136" fill="none" xmlns="http://www.w3.org/2000/svg">
<path d="M86.4768 32.0335H85.7362V11.7434C85.7362 8.62885 84.4989 5.64187 82.2966 3.43956C80.0943 1.23725 77.1073 3.92993e-06 73.9928 0H31.0054C29.4632 -3.89174e-06 27.9361 0.303743 26.5114 0.8939C25.0866 1.48406 23.792 2.34906 22.7015 3.43953C21.6111 4.53001 20.746 5.82458 20.1559 7.24935C19.5657 8.67412 19.262 10.2012 19.262 11.7433V123.057C19.262 124.599 19.5657 126.126 20.1559 127.551C20.746 128.975 21.611 130.27 22.7015 131.36C23.792 132.451 25.0866 133.316 26.5113 133.906C27.9361 134.496 29.4632 134.8 31.0053 134.8H73.9927C77.1073 134.8 80.0942 133.563 82.2966 131.36C84.4989 129.158 85.7361 126.171 85.7361 123.057V46.4764H86.4768L86.4768 32.0335Z" fill="#E6E6E6"/>
<path d="M74.4667 3.05518H68.8554C69.1134 3.68783 69.2119 4.37423 69.1422 5.05391C69.0725 5.7336 68.8367 6.38571 68.4556 6.9528C68.0745 7.51988 67.5597 7.98454 66.9568 8.30584C66.3538 8.62715 65.681 8.79523 64.9978 8.79528H40.3708C39.6876 8.79523 39.0148 8.62715 38.4118 8.30585C37.8089 7.98455 37.2941 7.51989 36.913 6.9528C36.5319 6.38571 36.2961 5.7336 36.2264 5.05391C36.1567 4.37423 36.2552 3.68783 36.5132 3.05518H31.2723C28.9464 3.05517 26.7157 3.97913 25.0711 5.62379C23.4264 7.26845 22.5024 9.49908 22.5024 11.825V122.975C22.5024 124.127 22.7293 125.267 23.17 126.331C23.6107 127.395 24.2567 128.362 25.0711 129.176C25.8854 129.99 26.8522 130.636 27.9162 131.077C28.9802 131.518 30.1206 131.745 31.2723 131.745H74.4667C75.6183 131.745 76.7587 131.518 77.8227 131.077C78.8867 130.636 79.8535 129.99 80.6679 129.176C81.4822 128.362 82.1282 127.395 82.5689 126.331C83.0097 125.267 83.2365 124.127 83.2365 122.975V11.825C83.2365 10.6733 83.0097 9.53292 82.5689 8.46892C82.1282 7.40491 81.4822 6.43814 80.6679 5.62379C79.8535 4.80944 78.8867 4.16346 77.8227 3.72274C76.7587 3.28201 75.6183 3.05518 74.4667 3.05518V3.05518Z" fill="white"/>
<path d="M142.065 135H0.185221C0.136098 135 0.0889856 134.98 0.0542499 134.946C0.0195142 134.911 0 134.864 0 134.815C0 134.766 0.0195142 134.718 0.0542499 134.684C0.0889856 134.649 0.136098 134.63 0.185221 134.63H142.065C142.114 134.63 142.161 134.649 142.196 134.684C142.23 134.718 142.25 134.766 142.25 134.815C142.25 134.864 142.23 134.911 142.196 134.946C142.161 134.98 142.114 135 142.065 135Z" fill="#3F3D56"/>
<path d="M79.0562 33.8035H26.6619C26.4047 33.8032 26.1581 33.7009 25.9762 33.519C25.7943 33.3371 25.692 33.0905 25.6917 32.8333V19.8365C25.692 19.5792 25.7943 19.3326 25.9762 19.1507C26.1581 18.9688 26.4047 18.8665 26.6619 18.8662H79.0562C79.3134 18.8665 79.56 18.9688 79.7419 19.1507C79.9238 19.3326 80.0261 19.5792 80.0265 19.8365V32.8333C80.0261 33.0905 79.9238 33.3371 79.7419 33.519C79.56 33.7009 79.3134 33.8032 79.0562 33.8035ZM26.6619 19.2543C26.5076 19.2545 26.3596 19.3159 26.2504 19.425C26.1413 19.5341 26.0799 19.6821 26.0798 19.8365V32.8333C26.0799 32.9876 26.1413 33.1356 26.2504 33.2447C26.3596 33.3539 26.5076 33.4153 26.6619 33.4154H79.0562C79.2105 33.4153 79.3585 33.3539 79.4677 33.2447C79.5768 33.1356 79.6382 32.9876 79.6384 32.8333V19.8365C79.6382 19.6821 79.5768 19.5341 79.4677 19.425C79.3585 19.3159 79.2105 19.2545 79.0562 19.2543H26.6619Z" fill="#3F3D56"/>
<path d="M79.0562 85.2276H26.6619C26.4047 85.2273 26.1581 85.1249 25.9762 84.943C25.7943 84.7611 25.692 84.5145 25.6917 84.2573V60.1995C25.692 59.9423 25.7943 59.6957 25.9762 59.5138C26.1581 59.3319 26.4047 59.2296 26.6619 59.2292H79.0562C79.3134 59.2296 79.56 59.3319 79.7419 59.5138C79.9238 59.6957 80.0261 59.9423 80.0264 60.1995V84.2573C80.0261 84.5145 79.9238 84.7611 79.7419 84.943C79.56 85.1249 79.3134 85.2273 79.0562 85.2276ZM26.6619 59.6174C26.5076 59.6175 26.3596 59.6789 26.2504 59.788C26.1413 59.8972 26.0799 60.0452 26.0798 60.1995V84.2573C26.0799 84.4116 26.1413 84.5596 26.2504 84.6688C26.3596 84.7779 26.5076 84.8393 26.6619 84.8395H79.0562C79.2105 84.8393 79.3585 84.7779 79.4677 84.6688C79.5768 84.5596 79.6382 84.4116 79.6384 84.2573V60.1995C79.6382 60.0452 79.5768 59.8972 79.4677 59.788C79.3585 59.6789 79.2105 59.6175 79.0562 59.6173L26.6619 59.6174Z" fill="#3F3D56"/>
<path d="M78.668 53.985H55.3816C55.1244 53.9847 54.8778 53.8824 54.6959 53.7005C54.514 53.5186 54.4117 53.272 54.4114 53.0148V40.018C54.4117 39.7608 54.514 39.5141 54.6959 39.3322C54.8778 39.1504 55.1244 39.048 55.3816 39.0477H78.668C78.9253 39.048 79.1719 39.1504 79.3538 39.3322C79.5357 39.5141 79.638 39.7608 79.6383 40.018V53.0148C79.638 53.272 79.5357 53.5186 79.3538 53.7005C79.1719 53.8824 78.9253 53.9847 78.668 53.985ZM55.3816 39.4358C55.2273 39.436 55.0793 39.4974 54.9702 39.6065C54.861 39.7157 54.7996 39.8636 54.7995 40.018V53.0148C54.7996 53.1691 54.861 53.3171 54.9702 53.4262C55.0793 53.5354 55.2273 53.5968 55.3816 53.5969H78.668C78.8224 53.5968 78.9704 53.5354 79.0795 53.4262C79.1886 53.3171 79.25 53.1691 79.2502 53.0148V40.018C79.25 39.8636 79.1886 39.7157 79.0795 39.6065C78.9704 39.4974 78.8224 39.436 78.668 39.4358L55.3816 39.4358Z" fill="#E6E6E6"/>
<path d="M49.9483 116.664H26.6619C26.4047 116.664 26.1581 116.561 25.9762 116.379C25.7943 116.198 25.692 115.951 25.6917 115.694V91.4418C25.692 91.1846 25.7943 90.938 25.9762 90.7561C26.1581 90.5742 26.4047 90.4719 26.6619 90.4716H49.9483C50.2055 90.4719 50.4521 90.5742 50.634 90.7561C50.8159 90.938 50.9183 91.1846 50.9186 91.4418V115.694C50.9183 115.951 50.8159 116.198 50.634 116.379C50.4521 116.561 50.2055 116.664 49.9483 116.664ZM26.6619 90.8597C26.5076 90.8598 26.3596 90.9212 26.2504 91.0304C26.1413 91.1395 26.0799 91.2875 26.0798 91.4418V115.694C26.0799 115.848 26.1413 115.996 26.2504 116.105C26.3596 116.214 26.5076 116.276 26.6619 116.276H49.9483C50.1026 116.276 50.2506 116.214 50.3598 116.105C50.4689 115.996 50.5303 115.848 50.5305 115.694V91.4418C50.5303 91.2875 50.4689 91.1395 50.3598 91.0304C50.2506 90.9212 50.1026 90.8598 49.9483 90.8597H26.6619Z" fill="#E6E6E6"/>
<path d="M78.668 116.664H55.3816C55.1244 116.664 54.8778 116.561 54.6959 116.379C54.514 116.198 54.4117 115.951 54.4114 115.694V91.4418C54.4117 91.1846 54.514 90.938 54.6959 90.7561C54.8778 90.5742 55.1244 90.4719 55.3816 90.4716H78.668C78.9253 90.4719 79.1719 90.5742 79.3538 90.7561C79.5357 90.938 79.638 91.1846 79.6383 91.4418V115.694C79.638 115.951 79.5357 116.198 79.3538 116.379C79.1719 116.561 78.9253 116.664 78.668 116.664ZM55.3816 90.8597C55.2273 90.8598 55.0793 90.9212 54.9702 91.0304C54.861 91.1395 54.7996 91.2875 54.7995 91.4418V115.694C54.7996 115.848 54.861 115.996 54.9702 116.105C55.0793 116.214 55.2273 116.276 55.3816 116.276H78.668C78.8224 116.276 78.9704 116.214 79.0795 116.105C79.1886 115.996 79.25 115.848 79.2502 115.694V91.4418C79.25 91.2875 79.1886 91.1395 79.0795 91.0304C78.9704 90.9212 78.8224 90.8598 78.668 90.8597H55.3816Z" fill="#E6E6E6"/>
<path d="M34.4147 71.704C36.5976 71.704 38.3671 69.9345 38.3671 67.7516C38.3671 65.5688 36.5976 63.7993 34.4147 63.7993C32.2319 63.7993 30.4624 65.5688 30.4624 67.7516C30.4624 69.9345 32.2319 71.704 34.4147 71.704Z" fill="#A0616A"/>
<path d="M43.5428 65.1167C43.368 65.1167 43.2005 65.1861 43.077 65.3096C42.9534 65.4332 42.884 65.6007 42.884 65.7754C42.884 65.9501 42.9534 66.1177 43.077 66.2412C43.2005 66.3647 43.368 66.4342 43.5428 66.4342H74.5968C74.7713 66.4337 74.9384 66.3642 75.0616 66.2407C75.1848 66.1172 75.254 65.9499 75.254 65.7754C75.254 65.601 75.1848 65.4337 75.0616 65.3102C74.9384 65.1867 74.7713 65.1171 74.5968 65.1167H43.5428Z" fill="#A0616A"/>
<path d="M43.5428 69.069C43.4563 69.0688 43.3706 69.0856 43.2906 69.1186C43.2106 69.1515 43.1379 69.1999 43.0766 69.2609C43.0153 69.322 42.9666 69.3945 42.9334 69.4743C42.9001 69.5542 42.8829 69.6398 42.8827 69.7263C42.8825 69.8128 42.8994 69.8985 42.9323 69.9785C42.9652 70.0585 43.0136 70.1312 43.0746 70.1925C43.1357 70.2538 43.2082 70.3025 43.2881 70.3358C43.3679 70.369 43.4535 70.3862 43.54 70.3864H56.9055C56.9921 70.3866 57.0779 70.3696 57.1579 70.3366C57.2379 70.3036 57.3107 70.2551 57.372 70.1939C57.4333 70.1327 57.4819 70.06 57.5151 69.98C57.5482 69.9 57.5653 69.8143 57.5653 69.7277C57.5653 69.6411 57.5482 69.5554 57.5151 69.4754C57.4819 69.3954 57.4333 69.3227 57.372 69.2615C57.3107 69.2003 57.2379 69.1518 57.1579 69.1188C57.0779 69.0858 56.9921 69.0688 56.9055 69.069H43.5428Z" fill="#A0616A"/>
<path d="M31.3834 75.3877C30.8824 75.3877 30.4746 75.6832 30.4746 76.0464C30.4746 76.4096 30.8824 76.7052 31.3834 76.7052H74.2285C74.7296 76.7052 75.1373 76.4096 75.1373 76.0464C75.1373 75.6832 74.7296 75.3877 74.2285 75.3877H31.3834Z" fill="#CCCCCC"/>
<path d="M31.3834 79.34C30.8824 79.34 30.4746 79.6355 30.4746 79.9987C30.4746 80.3619 30.8824 80.6574 31.3834 80.6574H74.2285C74.7296 80.6574 75.1373 80.3619 75.1373 79.9987C75.1373 79.6355 74.7296 79.34 74.2285 79.34H31.3834Z" fill="#CCCCCC"/>
<path d="M34.8029 29.7886C36.9857 29.7886 38.7553 28.0191 38.7553 25.8363C38.7553 23.6534 36.9857 21.8839 34.8029 21.8839C32.6201 21.8839 30.8506 23.6534 30.8506 25.8363C30.8506 28.0191 32.6201 29.7886 34.8029 29.7886Z" fill="#A0616A"/>
<path d="M43.931 23.2013C43.7565 23.2017 43.5894 23.2713 43.4662 23.3948C43.343 23.5183 43.2738 23.6856 43.2738 23.86C43.2738 24.0344 43.343 24.2018 43.4662 24.3252C43.5894 24.4487 43.7565 24.5183 43.931 24.5187H74.9851C75.0716 24.519 75.1574 24.5022 75.2375 24.4693C75.3175 24.4364 75.3903 24.3881 75.4517 24.327C75.5131 24.266 75.5618 24.1934 75.5951 24.1135C75.6285 24.0336 75.6457 23.948 75.6459 23.8614C75.6461 23.7748 75.6292 23.6891 75.5962 23.6091C75.5632 23.529 75.5148 23.4563 75.4537 23.395C75.3926 23.3337 75.32 23.285 75.24 23.2518C75.1601 23.2185 75.0744 23.2014 74.9878 23.2013C74.9869 23.2013 74.986 23.2013 74.9851 23.2013H43.931Z" fill="#A0616A"/>
<path d="M43.931 27.1537C43.7565 27.1541 43.5894 27.2237 43.4662 27.3472C43.343 27.4707 43.2738 27.638 43.2738 27.8124C43.2738 27.9868 43.343 28.1541 43.4662 28.2776C43.5894 28.4011 43.7565 28.4707 43.931 28.4711H57.2936C57.3802 28.4714 57.466 28.4546 57.546 28.4217C57.6261 28.3888 57.6989 28.3405 57.7603 28.2794C57.8217 28.2184 57.8704 28.1458 57.9037 28.0659C57.937 27.986 57.9543 27.9004 57.9545 27.8138C57.9546 27.7272 57.9378 27.6415 57.9048 27.5614C57.8718 27.4814 57.8234 27.4087 57.7623 27.3474C57.7011 27.286 57.6285 27.2374 57.5486 27.2042C57.4687 27.1709 57.383 27.1538 57.2964 27.1537C57.2955 27.1537 57.2946 27.1537 57.2936 27.1537H43.931Z" fill="#A0616A"/>
<path d="M49.9277 53.9874H28.083L33.2238 45.0831C33.3159 44.9235 33.4484 44.791 33.608 44.6989C33.7676 44.6067 33.9486 44.5582 34.1329 44.5582C34.3172 44.5582 34.4982 44.6067 34.6578 44.6989C34.8174 44.791 34.9499 44.9235 35.0421 45.0831L37.2381 48.8869L40.9722 42.4193C41.0876 42.2195 41.2535 42.0535 41.4533 41.9382C41.6531 41.8228 41.8798 41.7621 42.1105 41.7621C42.3412 41.7621 42.5679 41.8228 42.7677 41.9382C42.9675 42.0535 43.1334 42.2195 43.2487 42.4193L49.9277 53.9874ZM28.7552 53.5993H49.2555L42.9126 42.6133C42.8313 42.4725 42.7144 42.3556 42.5736 42.2743C42.4328 42.193 42.2731 42.1502 42.1105 42.1502C41.9479 42.1502 41.7882 42.193 41.6474 42.2743C41.5066 42.3556 41.3897 42.4725 41.3084 42.6133L37.2382 49.6631L34.7059 45.2772C34.6479 45.1766 34.5643 45.0931 34.4638 45.035C34.3632 44.9769 34.2491 44.9463 34.1329 44.9463C34.0168 44.9463 33.9027 44.9769 33.8021 45.035C33.7015 45.0931 33.618 45.1766 33.56 45.2772L28.7552 53.5993Z" fill="#E6E6E6"/>
<path d="M77.8713 53.9874H56.0266L61.1674 45.0831C61.2595 44.9235 61.392 44.791 61.5516 44.6989C61.7112 44.6067 61.8922 44.5582 62.0765 44.5582C62.2608 44.5582 62.4418 44.6067 62.6014 44.6989C62.761 44.791 62.8935 44.9235 62.9857 45.0831L65.1818 48.8869L68.9158 42.4193C69.0312 42.2195 69.1971 42.0535 69.3969 41.9382C69.5967 41.8228 69.8234 41.7621 70.0541 41.7621C70.2848 41.7621 70.5115 41.8228 70.7113 41.9382C70.9111 42.0535 71.077 42.2195 71.1923 42.4193L77.8713 53.9874ZM56.6988 53.5993H77.1991L70.8562 42.6133C70.7749 42.4725 70.658 42.3556 70.5172 42.2743C70.3764 42.193 70.2167 42.1502 70.0541 42.1502C69.8915 42.1502 69.7318 42.193 69.591 42.2743C69.4502 42.3556 69.3333 42.4725 69.252 42.6133L65.1817 49.6631L62.6495 45.2772C62.5914 45.1766 62.5079 45.093 62.4073 45.035C62.3068 44.9769 62.1927 44.9463 62.0765 44.9463C61.9604 44.9463 61.8463 44.9769 61.7457 45.035C61.6451 45.093 61.5616 45.1766 61.5036 45.2772L56.6988 53.5993Z" fill="#E6E6E6"/>
<path d="M49.9483 53.985H26.6619C26.4047 53.9847 26.1581 53.8824 25.9762 53.7005C25.7943 53.5186 25.692 53.272 25.6917 53.0148V40.018C25.692 39.7608 25.7943 39.5141 25.9762 39.3322C26.1581 39.1504 26.4047 39.048 26.6619 39.0477H49.9483C50.2055 39.048 50.4522 39.1504 50.634 39.3322C50.8159 39.5141 50.9183 39.7608 50.9186 40.018V53.0148C50.9183 53.272 50.8159 53.5186 50.634 53.7005C50.4521 53.8824 50.2055 53.9847 49.9483 53.985ZM26.6619 39.4358C26.5076 39.436 26.3596 39.4974 26.2504 39.6065C26.1413 39.7157 26.0799 39.8636 26.0797 40.018V53.0148C26.0799 53.1691 26.1413 53.3171 26.2504 53.4262C26.3596 53.5354 26.5076 53.5968 26.6619 53.5969H49.9483C50.1026 53.5968 50.2506 53.5354 50.3598 53.4262C50.4689 53.3171 50.5303 53.1691 50.5305 53.0148V40.018C50.5303 39.8636 50.4689 39.7157 50.3598 39.6065C50.2506 39.4974 50.1026 39.436 49.9483 39.4358L26.6619 39.4358Z" fill="#E6E6E6"/>
<path d="M31.6237 95.4728C31.5371 95.4726 31.4513 95.4896 31.3713 95.5226C31.2912 95.5556 31.2185 95.6041 31.1572 95.6653C31.0959 95.7265 31.0473 95.7992 31.0141 95.8792C30.9809 95.9592 30.9639 96.0449 30.9639 96.1315C30.9639 96.2181 30.9809 96.3038 31.0141 96.3838C31.0473 96.4638 31.0959 96.5365 31.1572 96.5977C31.2185 96.6589 31.2912 96.7074 31.3713 96.7404C31.4513 96.7735 31.5371 96.7904 31.6237 96.7902H44.9864C45.1611 96.7902 45.3286 96.7208 45.4521 96.5973C45.5757 96.4738 45.6451 96.3062 45.6451 96.1315C45.6451 95.9568 45.5757 95.7892 45.4521 95.6657C45.3286 95.5422 45.1611 95.4728 44.9864 95.4728H31.6237Z" fill="#E6E6E6"/>
<path d="M31.6237 99.3539C31.5371 99.3537 31.4513 99.3707 31.3713 99.4037C31.2912 99.4367 31.2185 99.4852 31.1572 99.5464C31.0959 99.6076 31.0473 99.6803 31.0141 99.7603C30.9809 99.8403 30.9639 99.926 30.9639 100.013C30.9639 100.099 30.9809 100.185 31.0141 100.265C31.0473 100.345 31.0959 100.418 31.1572 100.479C31.2185 100.54 31.2912 100.588 31.3713 100.622C31.4513 100.655 31.5371 100.671 31.6237 100.671H44.9864C45.1609 100.671 45.3281 100.602 45.4514 100.478C45.5747 100.355 45.644 100.187 45.644 100.013C45.644 99.8381 45.5747 99.6707 45.4514 99.5472C45.3281 99.4237 45.1609 99.3542 44.9864 99.3539H31.6237Z" fill="#E6E6E6"/>
<path d="M38.3051 111.663C37.485 111.663 36.6833 111.42 36.0015 110.964C35.3196 110.508 34.7881 109.861 34.4743 109.103C34.1605 108.346 34.0784 107.512 34.2384 106.708C34.3984 105.903 34.7933 105.164 35.3731 104.585C35.953 104.005 36.6918 103.61 37.4961 103.45C38.3005 103.29 39.1342 103.372 39.8918 103.686C40.6494 104 41.297 104.531 41.7526 105.213C42.2082 105.895 42.4514 106.696 42.4514 107.517C42.4502 108.616 42.0129 109.67 41.2356 110.447C40.4583 111.224 39.4044 111.662 38.3051 111.663ZM38.3051 103.758C37.5617 103.758 36.8351 103.979 36.2171 104.392C35.599 104.805 35.1173 105.392 34.8329 106.078C34.5484 106.765 34.474 107.521 34.619 108.25C34.764 108.979 35.122 109.648 35.6476 110.174C36.1732 110.7 36.8428 111.058 37.5719 111.203C38.3009 111.348 39.0565 111.273 39.7433 110.989C40.43 110.704 41.017 110.223 41.4299 109.604C41.8429 108.986 42.0633 108.26 42.0633 107.516C42.0621 106.52 41.6658 105.565 40.9613 104.86C40.2567 104.156 39.3014 103.759 38.3051 103.758V103.758Z" fill="#E6E6E6"/>
<path d="M73.7062 111.663C73.7928 111.663 73.8786 111.646 73.9586 111.613C74.0387 111.58 74.1114 111.531 74.1727 111.47C74.234 111.409 74.2826 111.336 74.3158 111.256C74.349 111.176 74.366 111.091 74.366 111.004C74.366 110.917 74.349 110.832 74.3158 110.752C74.2826 110.672 74.234 110.599 74.1727 110.538C74.1114 110.477 74.0387 110.428 73.9586 110.395C73.8786 110.362 73.7928 110.345 73.7062 110.345H60.3435C60.1688 110.345 60.0013 110.415 59.8778 110.538C59.7542 110.662 59.6848 110.829 59.6848 111.004C59.6848 111.179 59.7542 111.346 59.8778 111.47C60.0013 111.593 60.1688 111.663 60.3435 111.663H73.7062Z" fill="#E6E6E6"/>
<path d="M73.7062 107.782C73.7928 107.782 73.8786 107.765 73.9586 107.732C74.0387 107.699 74.1114 107.65 74.1727 107.589C74.234 107.528 74.2826 107.455 74.3158 107.375C74.349 107.295 74.366 107.21 74.366 107.123C74.366 107.036 74.349 106.951 74.3158 106.871C74.2826 106.791 74.234 106.718 74.1727 106.657C74.1114 106.596 74.0387 106.547 73.9586 106.514C73.8786 106.481 73.7928 106.464 73.7062 106.464H60.3435C60.1688 106.464 60.0013 106.534 59.8778 106.657C59.7542 106.781 59.6848 106.948 59.6848 107.123C59.6848 107.298 59.7542 107.465 59.8778 107.589C60.0013 107.712 60.1688 107.782 60.3435 107.782H73.7062Z" fill="#E6E6E6"/>
<path d="M67.0248 95.4728C67.8448 95.4728 68.6465 95.716 69.3283 96.1716C70.0102 96.6272 70.5417 97.2747 70.8555 98.0324C71.1693 98.79 71.2514 99.6237 71.0914 100.428C70.9315 101.232 70.5366 101.971 69.9567 102.551C69.3768 103.131 68.638 103.526 67.8337 103.686C67.0294 103.846 66.1957 103.764 65.438 103.45C64.6804 103.136 64.0328 102.605 63.5772 101.923C63.1216 101.241 62.8784 100.439 62.8784 99.6191V99.6191C62.8797 98.5198 63.3169 97.4659 64.0942 96.6886C64.8715 95.9113 65.9255 95.474 67.0248 95.4728ZM67.0248 103.377C67.7681 103.377 68.4947 103.157 69.1127 102.744C69.7308 102.331 70.2125 101.744 70.4969 101.057C70.7814 100.371 70.8558 99.615 70.7108 98.8859C70.5658 98.1569 70.2079 97.4873 69.6823 96.9617C69.1567 96.4361 68.487 96.0781 67.758 95.9331C67.029 95.7881 66.2733 95.8625 65.5866 96.147C64.8998 96.4314 64.3129 96.9131 63.8999 97.5311C63.4869 98.1492 63.2665 98.8758 63.2665 99.6191V99.6191C63.2677 100.616 63.664 101.571 64.3686 102.275C65.0731 102.98 66.0284 103.376 67.0248 103.377V103.377Z" fill="#E6E6E6"/>
<path d="M120.869 91.6106C121.183 91.579 121.486 91.4791 121.757 91.3178C122.028 91.1565 122.26 90.9378 122.437 90.6771C122.614 90.4163 122.732 90.1199 122.782 89.8087C122.833 89.4975 122.814 89.179 122.728 88.8758L129.006 84.481L125.303 83.0149L119.909 87.413C119.41 87.5915 118.993 87.9472 118.737 88.4126C118.482 88.878 118.407 89.4208 118.525 89.9382C118.643 90.4556 118.947 90.9116 119.379 91.2199C119.812 91.5281 120.342 91.6671 120.869 91.6106L120.869 91.6106Z" fill="#A0616A"/>
<path d="M123.796 88.4011C123.661 88.4008 123.527 88.3723 123.404 88.3173C123.264 88.2564 123.141 88.163 123.045 88.0448C122.949 87.9266 122.882 87.7871 122.851 87.638L122.43 85.6808C122.394 85.5129 122.403 85.3386 122.457 85.1756C122.51 85.0125 122.607 84.8668 122.735 84.7533L126.458 81.4753L122.783 73.7757C122.528 73.2403 122.484 72.628 122.66 72.0617C122.837 71.4953 123.221 71.0166 123.736 70.7215C124.251 70.4264 124.858 70.3367 125.436 70.4704C126.014 70.6041 126.52 70.9512 126.853 71.4423L131.559 78.3841C131.909 78.8953 132.15 79.4727 132.268 80.0808C132.386 80.6888 132.378 81.3146 132.245 81.9194C132.097 82.5587 131.818 83.1603 131.425 83.6859C131.033 84.2115 130.535 84.6497 129.964 84.9725L124.279 88.2698C124.132 88.3555 123.965 88.4008 123.796 88.4011Z" fill="#CCCCCC"/>
<path d="M102.938 84.2164C103.2 84.3915 103.498 84.5069 103.809 84.5546C104.121 84.6023 104.439 84.5811 104.742 84.4925C105.044 84.4038 105.324 84.2499 105.56 84.0416C105.797 83.8333 105.985 83.5757 106.111 83.2868L113.751 83.885L111.825 80.3996L104.865 80.3659C104.366 80.1859 103.818 80.1953 103.325 80.3924C102.832 80.5895 102.429 80.9605 102.191 81.4351C101.954 81.9097 101.899 82.455 102.036 82.9676C102.174 83.4803 102.495 83.9246 102.938 84.2164Z" fill="#A0616A"/>
<path d="M121.208 65.9665C124.117 65.9665 126.475 63.6084 126.475 60.6996C126.475 57.7907 124.117 55.4326 121.208 55.4326C118.299 55.4326 115.941 57.7907 115.941 60.6996C115.941 63.6084 118.299 65.9665 121.208 65.9665Z" fill="#A0616A"/>
<path d="M105.7 132.752L103.18 132.002L104.873 121.926L108.592 123.032L105.7 132.752Z" fill="#A0616A"/>
<path d="M105.616 135.386L97.4908 132.968L97.5214 132.866C97.645 132.45 97.8491 132.063 98.1222 131.727C98.3953 131.391 98.7319 131.111 99.113 130.905C99.494 130.699 99.912 130.569 100.343 130.525C100.774 130.48 101.209 130.52 101.625 130.644L101.625 130.644L106.587 132.121L105.616 135.386Z" fill="#2F2E41"/>
<path d="M133.307 132.623L130.678 132.622L129.427 122.482L132.021 122.482L133.307 132.623Z" fill="#A0616A"/>
<path d="M133.977 135.171L125.5 135.171V135.064C125.5 134.63 125.586 134.201 125.752 133.801C125.917 133.401 126.16 133.037 126.467 132.73C126.773 132.424 127.137 132.181 127.537 132.015C127.938 131.849 128.367 131.764 128.8 131.764H128.8L133.978 131.764L133.977 135.171Z" fill="#2F2E41"/>
<path d="M106.669 129.771H104.03C103.888 129.771 103.749 129.739 103.62 129.679C103.492 129.619 103.379 129.532 103.288 129.423C103.198 129.314 103.132 129.187 103.096 129.05C103.06 128.913 103.055 128.77 103.081 128.631L106.778 108.502C106.774 93.837 112.544 85.3429 112.602 85.2587L112.673 85.1571L123.456 86.0371L134.205 128.399C134.24 128.538 134.244 128.682 134.216 128.823C134.189 128.963 134.13 129.095 134.045 129.21C133.96 129.325 133.851 129.42 133.725 129.487C133.599 129.555 133.459 129.593 133.316 129.6L130.351 129.744C130.15 129.755 129.951 129.702 129.782 129.593C129.613 129.485 129.482 129.326 129.408 129.139L118.045 100.732C118.022 100.67 117.98 100.617 117.925 100.58C117.87 100.544 117.805 100.526 117.739 100.53C117.673 100.53 117.609 100.552 117.556 100.59C117.503 100.629 117.463 100.683 117.442 100.746L107.581 129.122C107.515 129.312 107.392 129.476 107.229 129.592C107.065 129.708 106.87 129.77 106.669 129.771Z" fill="#2F2E41"/>
<path d="M123.682 86.888L123.6 86.8819L112.118 86.0154L114.132 73.2067C114.353 71.7769 115.031 70.457 116.063 69.4438C117.096 68.4306 118.429 67.7786 119.863 67.585C119.951 67.5727 120.04 67.5606 120.129 67.5488C121.255 67.4006 122.401 67.5445 123.455 67.9666C124.51 68.3887 125.439 69.0749 126.152 69.9592C126.882 70.8486 127.371 71.9109 127.572 73.0438C127.773 74.1768 127.679 75.3425 127.3 76.4288L123.682 86.888Z" fill="#CCCCCC"/>
<path d="M117.842 83.543C117.376 83.9172 116.84 84.1958 116.267 84.3627C115.693 84.5296 115.091 84.5815 114.497 84.5155L107.852 83.8003C107.701 83.7839 107.555 83.7317 107.427 83.648C107.299 83.5643 107.193 83.4514 107.117 83.3187C107.042 83.1859 106.999 83.0371 106.992 82.8845C106.985 82.7319 107.014 82.5798 107.077 82.4408L107.964 80.4955C108.036 80.3369 108.149 80.2009 108.293 80.1017C108.436 80.0026 108.603 79.9442 108.777 79.9326L113.62 79.6079L115.21 71.2271C115.313 70.6892 115.6 70.2038 116.022 69.8545C116.444 69.5052 116.974 69.3138 117.522 69.3133C117.853 69.3118 118.18 69.3808 118.482 69.5158C118.784 69.6508 119.054 69.8486 119.274 70.096C119.69 70.5725 119.904 71.1927 119.87 71.8245L119.562 80.1337C119.541 80.762 119.39 81.3792 119.118 81.946C118.846 82.5128 118.46 83.0169 117.982 83.4262C117.936 83.4661 117.889 83.5051 117.842 83.543Z" fill="#CCCCCC"/>
<path d="M117.203 59.3843C116.547 59.6387 115.856 59.7907 115.154 59.8351C114.448 59.844 113.697 59.5994 113.311 59.0616C113.162 58.8267 113.067 58.5625 113.03 58.2871C112.994 58.0118 113.017 57.7318 113.099 57.4663C113.245 56.9281 113.508 56.4289 113.87 56.0042C114.231 55.5795 114.682 55.2398 115.19 55.0094C115.724 54.7673 116.3 54.633 116.886 54.6142C117.471 54.5953 118.055 54.6923 118.603 54.8995C119 53.6949 120.492 53.0392 121.874 53.0022C124.696 52.9264 127.219 54.8506 128.445 57.1644C129.671 59.4782 129.85 62.123 129.926 64.6907C129.945 65.3169 129.953 65.9699 129.656 66.5352C129.214 67.377 128.211 67.8304 127.265 68.1899C124.784 69.1312 122.224 69.8507 119.616 70.3399C120.868 69.5395 121.266 67.8167 120.472 66.6259C120.084 66.0433 119.447 65.5583 119.344 64.8835C119.22 64.0745 119.911 63.3669 120.166 62.5838C120.295 62.1598 120.301 61.7079 120.183 61.2808C120.065 60.8536 119.828 60.4688 119.499 60.1713C119.142 59.8608 118.714 59.6415 118.254 59.5322C117.793 59.423 117.312 59.427 116.854 59.5439" fill="#2F2E41"/>
<path d="M137.604 135.512H93.2144C93.1576 135.512 93.103 135.489 93.0628 135.449C93.0226 135.409 93 135.354 93 135.297C93 135.24 93.0226 135.186 93.0628 135.146C93.103 135.105 93.1576 135.083 93.2144 135.083H137.604C137.661 135.083 137.715 135.105 137.756 135.146C137.796 135.186 137.819 135.24 137.819 135.297C137.819 135.354 137.796 135.409 137.756 135.449C137.715 135.489 137.661 135.512 137.604 135.512Z" fill="#CCCCCC"/>
</svg>
