<svg width="210" height="54" viewBox="0 0 210 54" fill="none" xmlns="http://www.w3.org/2000/svg">
<path d="M71.6 38.32C70.0853 38.32 68.7307 38.0107 67.536 37.392C66.3627 36.7733 65.4347 35.8133 64.752 34.512C64.0907 33.2107 63.76 31.5467 63.76 29.52C63.76 27.408 64.112 25.6907 64.816 24.368C65.52 23.0453 66.4693 22.0747 67.664 21.456C68.88 20.8373 70.256 20.528 71.792 20.528C72.6667 20.528 73.5093 20.624 74.32 20.816C75.1307 20.9867 75.792 21.2 76.304 21.456L75.44 23.792C74.928 23.6 74.3307 23.4187 73.648 23.248C72.9653 23.0773 72.3253 22.992 71.728 22.992C68.3573 22.992 66.672 25.1573 66.672 29.488C66.672 31.5573 67.0773 33.1467 67.888 34.256C68.72 35.344 69.9467 35.888 71.568 35.888C72.5067 35.888 73.328 35.792 74.032 35.6C74.7573 35.408 75.4187 35.1733 76.016 34.896V37.392C75.44 37.6907 74.8 37.9147 74.096 38.064C73.4133 38.2347 72.5813 38.32 71.6 38.32ZM86.591 20.56C88.6817 20.56 90.2283 21.0187 91.231 21.936C92.2337 22.8533 92.735 24.3147 92.735 26.32V38H90.687L90.143 35.568H90.015C89.2683 36.5067 88.479 37.2 87.647 37.648C86.8363 38.096 85.7057 38.32 84.255 38.32C82.6977 38.32 81.407 37.9147 80.383 37.104C79.359 36.272 78.847 34.9813 78.847 33.232C78.847 31.5253 79.519 30.2133 80.863 29.296C82.207 28.3573 84.2763 27.8453 87.071 27.76L89.983 27.664V26.64C89.983 25.2107 89.6737 24.2187 89.055 23.664C88.4363 23.1093 87.5617 22.832 86.431 22.832C85.535 22.832 84.6817 22.9707 83.871 23.248C83.0603 23.504 82.303 23.8027 81.599 24.144L80.735 22.032C81.4817 21.6267 82.367 21.2853 83.391 21.008C84.415 20.7093 85.4817 20.56 86.591 20.56ZM87.423 29.712C85.2897 29.7973 83.807 30.1387 82.975 30.736C82.1643 31.3333 81.759 32.176 81.759 33.264C81.759 34.224 82.047 34.928 82.623 35.376C83.2203 35.824 83.9777 36.048 84.895 36.048C86.3457 36.048 87.551 35.6533 88.511 34.864C89.471 34.0533 89.951 32.816 89.951 31.152V29.616L87.423 29.712ZM106.033 20.528C106.353 20.528 106.694 20.5493 107.057 20.592C107.441 20.6133 107.771 20.656 108.049 20.72L107.697 23.312C107.419 23.248 107.11 23.1947 106.769 23.152C106.449 23.1093 106.139 23.088 105.841 23.088C104.966 23.088 104.145 23.3333 103.377 23.824C102.609 24.2933 101.99 24.9653 101.521 25.84C101.073 26.6933 100.849 27.696 100.849 28.848V38H98.0325V20.848H100.337L100.657 23.984H100.785C101.339 23.0453 102.054 22.2347 102.929 21.552C103.803 20.8693 104.838 20.528 106.033 20.528ZM116.706 38.32C114.573 38.32 112.866 37.584 111.586 36.112C110.306 34.6187 109.666 32.4 109.666 29.456C109.666 26.512 110.306 24.2933 111.586 22.8C112.888 21.2853 114.605 20.528 116.738 20.528C118.061 20.528 119.138 20.7733 119.97 21.264C120.824 21.7547 121.517 22.352 122.05 23.056H122.242C122.221 22.7787 122.178 22.3733 122.114 21.84C122.072 21.2853 122.05 20.848 122.05 20.528V13.68H124.866V38H122.594L122.178 35.696H122.05C121.538 36.4213 120.856 37.04 120.002 37.552C119.149 38.064 118.05 38.32 116.706 38.32ZM117.154 35.984C118.968 35.984 120.237 35.4933 120.962 34.512C121.709 33.5093 122.082 32.0053 122.082 30V29.488C122.082 27.3547 121.73 25.7227 121.026 24.592C120.322 23.44 119.021 22.864 117.122 22.864C115.608 22.864 114.466 23.472 113.698 24.688C112.952 25.8827 112.578 27.4933 112.578 29.52C112.578 31.568 112.952 33.1573 113.698 34.288C114.466 35.4187 115.618 35.984 117.154 35.984ZM146.482 33.264C146.482 34.928 145.863 36.1867 144.626 37.04C143.388 37.8933 141.724 38.32 139.634 38.32C138.439 38.32 137.404 38.224 136.53 38.032C135.676 37.84 134.919 37.5733 134.258 37.232V34.672C134.94 35.0133 135.762 35.3333 136.722 35.632C137.703 35.9093 138.695 36.048 139.698 36.048C141.127 36.048 142.162 35.824 142.802 35.376C143.442 34.9067 143.762 34.288 143.762 33.52C143.762 33.0933 143.644 32.7093 143.41 32.368C143.175 32.0267 142.748 31.6853 142.13 31.344C141.532 31.0027 140.668 30.6187 139.538 30.192C138.428 29.7653 137.479 29.3387 136.69 28.912C135.9 28.4853 135.292 27.9733 134.866 27.376C134.439 26.7787 134.226 26.0107 134.226 25.072C134.226 23.6213 134.812 22.5013 135.986 21.712C137.18 20.9227 138.738 20.528 140.658 20.528C141.703 20.528 142.674 20.6347 143.57 20.848C144.487 21.04 145.34 21.3173 146.13 21.68L145.17 23.92C144.444 23.6213 143.687 23.3653 142.898 23.152C142.108 22.9387 141.298 22.832 140.466 22.832C139.314 22.832 138.428 23.024 137.81 23.408C137.212 23.7707 136.914 24.272 136.914 24.912C136.914 25.3813 137.052 25.7867 137.33 26.128C137.607 26.448 138.066 26.768 138.706 27.088C139.367 27.3867 140.242 27.7493 141.33 28.176C142.418 28.5813 143.346 28.9973 144.114 29.424C144.882 29.8507 145.468 30.3733 145.874 30.992C146.279 31.5893 146.482 32.3467 146.482 33.264ZM156.354 36.016C156.781 36.016 157.218 35.984 157.666 35.92C158.114 35.8347 158.477 35.7493 158.754 35.664V37.808C158.456 37.9573 158.029 38.0747 157.474 38.16C156.92 38.2667 156.386 38.32 155.874 38.32C154.978 38.32 154.146 38.1707 153.378 37.872C152.632 37.552 152.024 37.008 151.554 36.24C151.085 35.472 150.85 34.3947 150.85 33.008V23.024H148.418V21.68L150.882 20.56L152.002 16.912H153.666V20.848H158.626V23.024H153.666V32.944C153.666 33.9893 153.912 34.768 154.402 35.28C154.914 35.7707 155.565 36.016 156.354 36.016ZM168.685 20.56C170.775 20.56 172.322 21.0187 173.325 21.936C174.327 22.8533 174.829 24.3147 174.829 26.32V38H172.781L172.237 35.568H172.109C171.362 36.5067 170.573 37.2 169.741 37.648C168.93 38.096 167.799 38.32 166.349 38.32C164.791 38.32 163.501 37.9147 162.477 37.104C161.453 36.272 160.941 34.9813 160.941 33.232C160.941 31.5253 161.613 30.2133 162.957 29.296C164.301 28.3573 166.37 27.8453 169.165 27.76L172.077 27.664V26.64C172.077 25.2107 171.767 24.2187 171.149 23.664C170.53 23.1093 169.655 22.832 168.525 22.832C167.629 22.832 166.775 22.9707 165.965 23.248C165.154 23.504 164.397 23.8027 163.693 24.144L162.829 22.032C163.575 21.6267 164.461 21.2853 165.485 21.008C166.509 20.7093 167.575 20.56 168.685 20.56ZM169.517 29.712C167.383 29.7973 165.901 30.1387 165.069 30.736C164.258 31.3333 163.853 32.176 163.853 33.264C163.853 34.224 164.141 34.928 164.717 35.376C165.314 35.824 166.071 36.048 166.989 36.048C168.439 36.048 169.645 35.6533 170.605 34.864C171.565 34.0533 172.045 32.816 172.045 31.152V29.616L169.517 29.712ZM191.294 33.264C191.294 34.928 190.676 36.1867 189.438 37.04C188.201 37.8933 186.537 38.32 184.446 38.32C183.252 38.32 182.217 38.224 181.342 38.032C180.489 37.84 179.732 37.5733 179.07 37.232V34.672C179.753 35.0133 180.574 35.3333 181.534 35.632C182.516 35.9093 183.508 36.048 184.51 36.048C185.94 36.048 186.974 35.824 187.614 35.376C188.254 34.9067 188.574 34.288 188.574 33.52C188.574 33.0933 188.457 32.7093 188.222 32.368C187.988 32.0267 187.561 31.6853 186.942 31.344C186.345 31.0027 185.481 30.6187 184.35 30.192C183.241 29.7653 182.292 29.3387 181.502 28.912C180.713 28.4853 180.105 27.9733 179.678 27.376C179.252 26.7787 179.038 26.0107 179.038 25.072C179.038 23.6213 179.625 22.5013 180.798 21.712C181.993 20.9227 183.55 20.528 185.47 20.528C186.516 20.528 187.486 20.6347 188.382 20.848C189.3 21.04 190.153 21.3173 190.942 21.68L189.982 23.92C189.257 23.6213 188.5 23.3653 187.71 23.152C186.921 22.9387 186.11 22.832 185.278 22.832C184.126 22.832 183.241 23.024 182.622 23.408C182.025 23.7707 181.726 24.272 181.726 24.912C181.726 25.3813 181.865 25.7867 182.142 26.128C182.42 26.448 182.878 26.768 183.518 27.088C184.18 27.3867 185.054 27.7493 186.142 28.176C187.23 28.5813 188.158 28.9973 188.926 29.424C189.694 29.8507 190.281 30.3733 190.686 30.992C191.092 31.5893 191.294 32.3467 191.294 33.264ZM198.255 20.816C198.255 21.6693 198.201 22.4693 198.095 23.216H198.287C198.841 22.3413 199.588 21.68 200.527 21.232C201.487 20.784 202.521 20.56 203.631 20.56C205.721 20.56 207.289 21.0613 208.335 22.064C209.38 23.0453 209.903 24.6347 209.903 26.832V38H207.119V27.024C207.119 24.272 205.839 22.896 203.279 22.896C201.359 22.896 200.036 23.44 199.311 24.528C198.607 25.5947 198.255 27.1307 198.255 29.136V38H195.439V13.68H198.255V20.816Z" fill="#314455"/>
<rect x="4" y="4" width="49" height="46" rx="10" fill="#314455"/>
<path d="M22.284 19.94C20.1373 19.94 18.448 20.6587 17.216 22.096C15.984 23.5333 15.368 25.5027 15.368 28.004C15.368 30.4867 15.9373 32.456 17.076 33.912C18.2333 35.3493 19.96 36.068 22.256 36.068C23.1333 36.068 23.964 35.9933 24.748 35.844C25.532 35.6947 26.2973 35.508 27.044 35.284V37.468C26.2973 37.748 25.5227 37.9533 24.72 38.084C23.936 38.2147 22.9933 38.28 21.892 38.28C19.8573 38.28 18.1587 37.86 16.796 37.02C15.4333 36.18 14.4067 34.9853 13.716 33.436C13.044 31.8867 12.708 30.0667 12.708 27.976C12.708 25.96 13.072 24.1867 13.8 22.656C14.5467 21.1067 15.6387 19.9027 17.076 19.044C18.5133 18.1667 20.2587 17.728 22.312 17.728C24.4213 17.728 26.26 18.12 27.828 18.904L26.82 21.032C26.204 20.752 25.5133 20.5 24.748 20.276C24.0013 20.052 23.18 19.94 22.284 19.94ZM42.7474 32.652C42.7474 34.4253 42.1034 35.8067 40.8154 36.796C39.5274 37.7853 37.7914 38.28 35.6074 38.28C34.4874 38.28 33.4514 38.196 32.4994 38.028C31.5474 37.86 30.7541 37.6267 30.1194 37.328V34.92C30.7914 35.2187 31.6221 35.4893 32.6114 35.732C33.6194 35.9747 34.6554 36.096 35.7194 36.096C37.2127 36.096 38.3327 35.8067 39.0794 35.228C39.8447 34.6493 40.2274 33.8653 40.2274 32.876C40.2274 32.2227 40.0874 31.672 39.8074 31.224C39.5274 30.776 39.0421 30.3653 38.3514 29.992C37.6794 29.6 36.7367 29.1893 35.5234 28.76C33.8247 28.144 32.5367 27.388 31.6594 26.492C30.8007 25.596 30.3714 24.3733 30.3714 22.824C30.3714 21.76 30.6421 20.8547 31.1834 20.108C31.7247 19.3427 32.4714 18.7547 33.4234 18.344C34.3941 17.9333 35.5047 17.728 36.7554 17.728C37.8567 17.728 38.8647 17.8307 39.7794 18.036C40.6941 18.2413 41.5247 18.512 42.2714 18.848L41.4874 21.004C40.7967 20.7053 40.0407 20.4533 39.2194 20.248C38.4167 20.0427 37.5767 19.94 36.6994 19.94C35.4487 19.94 34.5061 20.2107 33.8714 20.752C33.2367 21.2747 32.9194 21.9747 32.9194 22.852C32.9194 23.524 33.0594 24.084 33.3394 24.532C33.6194 24.98 34.0767 25.3813 34.7114 25.736C35.3461 26.0907 36.2047 26.4733 37.2874 26.884C38.4634 27.3133 39.4527 27.78 40.2554 28.284C41.0767 28.7693 41.6927 29.3573 42.1034 30.048C42.5327 30.7387 42.7474 31.6067 42.7474 32.652Z" fill="white"/>
<rect x="0.5" y="0.5" width="129" height="53" rx="9.5" stroke="#314455"/>
</svg>