<svg width="133" height="25" viewBox="0 0 133 25" fill="none" xmlns="http://www.w3.org/2000/svg">
<path d="M12.712 11.056C12.5947 11.2053 12.4773 11.3227 12.36 11.408C12.2533 11.4933 12.0933 11.536 11.88 11.536C11.6773 11.536 11.48 11.4773 11.288 11.36C11.096 11.232 10.8667 11.0933 10.6 10.944C10.3333 10.784 10.0133 10.6453 9.64 10.528C9.27733 10.4 8.824 10.336 8.28 10.336C7.58667 10.336 6.97867 10.464 6.456 10.72C5.93333 10.9653 5.496 11.3227 5.144 11.792C4.80267 12.2613 4.54667 12.832 4.376 13.504C4.20533 14.1653 4.12 14.9173 4.12 15.76C4.12 16.6347 4.21067 17.4133 4.392 18.096C4.584 18.7787 4.856 19.3547 5.208 19.824C5.56 20.2827 5.98667 20.6347 6.488 20.88C6.98933 21.1147 7.55467 21.232 8.184 21.232C8.81333 21.232 9.32 21.1573 9.704 21.008C10.0987 20.848 10.4293 20.6773 10.696 20.496C10.9627 20.304 11.192 20.1333 11.384 19.984C11.5867 19.824 11.8107 19.744 12.056 19.744C12.376 19.744 12.616 19.8667 12.776 20.112L13.912 21.552C13.4747 22.064 13 22.496 12.488 22.848C11.976 23.1893 11.4427 23.4667 10.888 23.68C10.344 23.8827 9.77867 24.0267 9.192 24.112C8.616 24.1973 8.04 24.24 7.464 24.24C6.45067 24.24 5.496 24.0533 4.6 23.68C3.704 23.296 2.92 22.7413 2.248 22.016C1.576 21.2907 1.04267 20.4053 0.648 19.36C0.264 18.304 0.072 17.104 0.072 15.76C0.072 14.5547 0.242667 13.44 0.584 12.416C0.936 11.3813 1.448 10.4907 2.12 9.744C2.792 8.98667 3.624 8.39467 4.616 7.968C5.608 7.54133 6.74933 7.328 8.04 7.328C9.26667 7.328 10.3387 7.52533 11.256 7.92C12.184 8.31467 13.016 8.88 13.752 9.616L12.712 11.056ZM25.0615 16.992C23.9202 17.0453 22.9602 17.1467 22.1815 17.296C21.4028 17.4347 20.7788 17.616 20.3095 17.84C19.8402 18.064 19.5042 18.3253 19.3015 18.624C19.0988 18.9227 18.9975 19.248 18.9975 19.6C18.9975 20.2933 19.2002 20.7893 19.6055 21.088C20.0215 21.3867 20.5602 21.536 21.2215 21.536C22.0322 21.536 22.7308 21.392 23.3175 21.104C23.9148 20.8053 24.4962 20.3573 25.0615 19.76V16.992ZM16.0055 9.872C17.8935 8.144 20.1655 7.28 22.8215 7.28C23.7815 7.28 24.6402 7.44 25.3975 7.76C26.1548 8.06933 26.7948 8.50667 27.3175 9.072C27.8402 9.62667 28.2348 10.2933 28.5015 11.072C28.7788 11.8507 28.9175 12.704 28.9175 13.632V24H27.1255C26.7522 24 26.4642 23.9467 26.2615 23.84C26.0588 23.7227 25.8988 23.4933 25.7815 23.152L25.4295 21.968C25.0135 22.3413 24.6082 22.672 24.2135 22.96C23.8188 23.2373 23.4082 23.472 22.9815 23.664C22.5548 23.856 22.0962 24 21.6055 24.096C21.1255 24.2027 20.5922 24.256 20.0055 24.256C19.3122 24.256 18.6722 24.1653 18.0855 23.984C17.4988 23.792 16.9922 23.5093 16.5655 23.136C16.1388 22.7627 15.8082 22.2987 15.5735 21.744C15.3388 21.1893 15.2215 20.544 15.2215 19.808C15.2215 19.392 15.2908 18.9813 15.4295 18.576C15.5682 18.16 15.7922 17.7653 16.1015 17.392C16.4215 17.0187 16.8322 16.6667 17.3335 16.336C17.8348 16.0053 18.4482 15.7173 19.1735 15.472C19.9095 15.2267 20.7628 15.0293 21.7335 14.88C22.7042 14.72 23.8135 14.624 25.0615 14.592V13.632C25.0615 12.5333 24.8268 11.7227 24.3575 11.2C23.8882 10.6667 23.2108 10.4 22.3255 10.4C21.6855 10.4 21.1522 10.4747 20.7255 10.624C20.3095 10.7733 19.9415 10.944 19.6215 11.136C19.3015 11.3173 19.0082 11.4827 18.7415 11.632C18.4855 11.7813 18.1975 11.856 17.8775 11.856C17.6002 11.856 17.3655 11.7867 17.1735 11.648C16.9815 11.4987 16.8268 11.328 16.7095 11.136L16.0055 9.872ZM36.3675 10.432C36.8795 9.45067 37.4875 8.68267 38.1915 8.128C38.8955 7.56267 39.7275 7.28 40.6875 7.28C41.4448 7.28 42.0528 7.44533 42.5115 7.776L42.2555 10.736C42.2022 10.928 42.1222 11.0667 42.0155 11.152C41.9195 11.2267 41.7862 11.264 41.6155 11.264C41.4555 11.264 41.2155 11.2373 40.8955 11.184C40.5862 11.1307 40.2822 11.104 39.9835 11.104C39.5462 11.104 39.1568 11.168 38.8155 11.296C38.4742 11.424 38.1648 11.6107 37.8875 11.856C37.6208 12.0907 37.3808 12.3787 37.1675 12.72C36.9648 13.0613 36.7728 13.4507 36.5915 13.888V24H32.6395V7.584H34.9595C35.3648 7.584 35.6475 7.65867 35.8075 7.808C35.9675 7.94667 36.0742 8.20267 36.1275 8.576L36.3675 10.432ZM54.4435 11.776C53.9955 11.232 53.5048 10.848 52.9715 10.624C52.4488 10.4 51.8835 10.288 51.2755 10.288C50.6782 10.288 50.1395 10.4 49.6595 10.624C49.1795 10.848 48.7688 11.1893 48.4275 11.648C48.0862 12.096 47.8248 12.672 47.6435 13.376C47.4622 14.0693 47.3715 14.8907 47.3715 15.84C47.3715 16.8 47.4462 17.616 47.5955 18.288C47.7555 18.9493 47.9795 19.4933 48.2675 19.92C48.5555 20.336 48.9075 20.64 49.3235 20.832C49.7395 21.0133 50.2035 21.104 50.7155 21.104C51.5368 21.104 52.2355 20.9333 52.8115 20.592C53.3875 20.2507 53.9315 19.7653 54.4435 19.136V11.776ZM58.3955 0.223999V24H55.9795C55.4568 24 55.1262 23.76 54.9875 23.28L54.6515 21.696C53.9902 22.4533 53.2275 23.0667 52.3635 23.536C51.5102 24.0053 50.5128 24.24 49.3715 24.24C48.4755 24.24 47.6542 24.0533 46.9075 23.68C46.1608 23.3067 45.5155 22.768 44.9715 22.064C44.4382 21.3493 44.0222 20.4693 43.7235 19.424C43.4355 18.3787 43.2915 17.184 43.2915 15.84C43.2915 14.624 43.4568 13.4933 43.7875 12.448C44.1182 11.4027 44.5928 10.496 45.2115 9.728C45.8302 8.96 46.5715 8.36267 47.4355 7.936C48.2995 7.49867 49.2702 7.28 50.3475 7.28C51.2648 7.28 52.0488 7.424 52.6995 7.712C53.3502 8 53.9315 8.38933 54.4435 8.88V0.223999H58.3955Z" fill="#C96567"/>
<path d="M72.3118 10.784C72.2051 10.9547 72.0931 11.0773 71.9758 11.152C71.8584 11.216 71.7091 11.248 71.5278 11.248C71.3358 11.248 71.1278 11.1947 70.9038 11.088C70.6904 10.9813 70.4398 10.864 70.1518 10.736C69.8638 10.5973 69.5331 10.4747 69.1597 10.368C68.7971 10.2613 68.3651 10.208 67.8638 10.208C67.0851 10.208 66.4718 10.3733 66.0238 10.704C65.5864 11.0347 65.3678 11.4667 65.3678 12C65.3678 12.352 65.4798 12.6507 65.7038 12.896C65.9384 13.1307 66.2424 13.3387 66.6158 13.52C66.9998 13.7013 67.4318 13.8667 67.9118 14.016C68.3918 14.1547 68.8771 14.3093 69.3678 14.48C69.8691 14.6507 70.3598 14.848 70.8398 15.072C71.3198 15.2853 71.7464 15.5627 72.1198 15.904C72.5038 16.2347 72.8078 16.6347 73.0318 17.104C73.2664 17.5733 73.3838 18.1387 73.3838 18.8C73.3838 19.5893 73.2398 20.32 72.9518 20.992C72.6744 21.6533 72.2584 22.2293 71.7038 22.72C71.1491 23.2 70.4611 23.5787 69.6398 23.856C68.8291 24.1227 67.8904 24.256 66.8238 24.256C66.2584 24.256 65.7038 24.2027 65.1598 24.096C64.6264 24 64.1091 23.8613 63.6078 23.68C63.1171 23.4987 62.6584 23.2853 62.2318 23.04C61.8158 22.7947 61.4478 22.528 61.1278 22.24L62.0398 20.736C62.1571 20.5547 62.2958 20.416 62.4557 20.32C62.6157 20.224 62.8184 20.176 63.0638 20.176C63.3091 20.176 63.5384 20.2453 63.7518 20.384C63.9758 20.5227 64.2318 20.672 64.5198 20.832C64.8078 20.992 65.1438 21.1413 65.5278 21.28C65.9224 21.4187 66.4184 21.488 67.0158 21.488C67.4851 21.488 67.8851 21.4347 68.2158 21.328C68.5571 21.2107 68.8344 21.0613 69.0478 20.88C69.2718 20.6987 69.4317 20.4907 69.5278 20.256C69.6344 20.0107 69.6878 19.76 69.6878 19.504C69.6878 19.12 69.5704 18.8053 69.3358 18.56C69.1118 18.3147 68.8078 18.1013 68.4237 17.92C68.0504 17.7387 67.6184 17.5787 67.1278 17.44C66.6478 17.2907 66.1518 17.1307 65.6398 16.96C65.1384 16.7893 64.6424 16.592 64.1518 16.368C63.6718 16.1333 63.2398 15.84 62.8558 15.488C62.4824 15.136 62.1784 14.704 61.9438 14.192C61.7198 13.68 61.6078 13.0613 61.6078 12.336C61.6078 11.664 61.7411 11.024 62.0078 10.416C62.2744 9.808 62.6638 9.28 63.1758 8.832C63.6984 8.37333 64.3438 8.01067 65.1118 7.744C65.8904 7.46667 66.7864 7.328 67.7998 7.328C68.9304 7.328 69.9598 7.51467 70.8878 7.888C71.8158 8.26133 72.5891 8.752 73.2078 9.36L72.3118 10.784ZM81.8303 24.256C80.4009 24.256 79.3023 23.856 78.5343 23.056C77.7769 22.2453 77.3983 21.1307 77.3983 19.712V10.544H75.7183C75.5049 10.544 75.3236 10.4747 75.1743 10.336C75.0249 10.1973 74.9503 9.98933 74.9503 9.712V8.144L77.5903 7.712L78.4223 3.232C78.4756 3.01867 78.5769 2.85333 78.7263 2.736C78.8756 2.61867 79.0676 2.56 79.3023 2.56H81.3503V7.728H85.7343V10.544H81.3503V19.44C81.3503 19.952 81.4729 20.352 81.7183 20.64C81.9743 20.928 82.3209 21.072 82.7583 21.072C83.0036 21.072 83.2063 21.0453 83.3663 20.992C83.5369 20.928 83.6809 20.864 83.7983 20.8C83.9263 20.736 84.0383 20.6773 84.1343 20.624C84.2303 20.56 84.3263 20.528 84.4223 20.528C84.5396 20.528 84.6356 20.56 84.7103 20.624C84.7849 20.6773 84.8649 20.7627 84.9503 20.88L86.1343 22.8C85.5583 23.28 84.8969 23.6427 84.1503 23.888C83.4036 24.1333 82.6303 24.256 81.8303 24.256ZM96.9365 16.992C95.7952 17.0453 94.8352 17.1467 94.0565 17.296C93.2778 17.4347 92.6538 17.616 92.1845 17.84C91.7152 18.064 91.3792 18.3253 91.1765 18.624C90.9738 18.9227 90.8725 19.248 90.8725 19.6C90.8725 20.2933 91.0752 20.7893 91.4805 21.088C91.8965 21.3867 92.4352 21.536 93.0965 21.536C93.9072 21.536 94.6058 21.392 95.1925 21.104C95.7898 20.8053 96.3712 20.3573 96.9365 19.76V16.992ZM87.8805 9.872C89.7685 8.144 92.0405 7.28 94.6965 7.28C95.6565 7.28 96.5152 7.44 97.2725 7.76C98.0298 8.06933 98.6698 8.50667 99.1925 9.072C99.7152 9.62667 100.11 10.2933 100.377 11.072C100.654 11.8507 100.793 12.704 100.793 13.632V24H99.0005C98.6272 24 98.3392 23.9467 98.1365 23.84C97.9338 23.7227 97.7738 23.4933 97.6565 23.152L97.3045 21.968C96.8885 22.3413 96.4832 22.672 96.0885 22.96C95.6938 23.2373 95.2832 23.472 94.8565 23.664C94.4298 23.856 93.9712 24 93.4805 24.096C93.0005 24.2027 92.4672 24.256 91.8805 24.256C91.1872 24.256 90.5472 24.1653 89.9605 23.984C89.3738 23.792 88.8672 23.5093 88.4405 23.136C88.0138 22.7627 87.6832 22.2987 87.4485 21.744C87.2138 21.1893 87.0965 20.544 87.0965 19.808C87.0965 19.392 87.1658 18.9813 87.3045 18.576C87.4432 18.16 87.6672 17.7653 87.9765 17.392C88.2965 17.0187 88.7072 16.6667 89.2085 16.336C89.7098 16.0053 90.3232 15.7173 91.0485 15.472C91.7845 15.2267 92.6378 15.0293 93.6085 14.88C94.5792 14.72 95.6885 14.624 96.9365 14.592V13.632C96.9365 12.5333 96.7018 11.7227 96.2325 11.2C95.7632 10.6667 95.0858 10.4 94.2005 10.4C93.5605 10.4 93.0272 10.4747 92.6005 10.624C92.1845 10.7733 91.8165 10.944 91.4965 11.136C91.1765 11.3173 90.8832 11.4827 90.6165 11.632C90.3605 11.7813 90.0725 11.856 89.7525 11.856C89.4752 11.856 89.2405 11.7867 89.0485 11.648C88.8565 11.4987 88.7018 11.328 88.5845 11.136L87.8805 9.872ZM114.531 10.784C114.424 10.9547 114.312 11.0773 114.195 11.152C114.077 11.216 113.928 11.248 113.747 11.248C113.555 11.248 113.347 11.1947 113.123 11.088C112.909 10.9813 112.659 10.864 112.371 10.736C112.083 10.5973 111.752 10.4747 111.378 10.368C111.016 10.2613 110.584 10.208 110.083 10.208C109.304 10.208 108.691 10.3733 108.243 10.704C107.805 11.0347 107.587 11.4667 107.587 12C107.587 12.352 107.699 12.6507 107.923 12.896C108.157 13.1307 108.461 13.3387 108.835 13.52C109.219 13.7013 109.651 13.8667 110.131 14.016C110.611 14.1547 111.096 14.3093 111.587 14.48C112.088 14.6507 112.579 14.848 113.059 15.072C113.539 15.2853 113.965 15.5627 114.339 15.904C114.723 16.2347 115.027 16.6347 115.251 17.104C115.485 17.5733 115.603 18.1387 115.603 18.8C115.603 19.5893 115.459 20.32 115.171 20.992C114.893 21.6533 114.477 22.2293 113.923 22.72C113.368 23.2 112.68 23.5787 111.859 23.856C111.048 24.1227 110.109 24.256 109.043 24.256C108.477 24.256 107.923 24.2027 107.379 24.096C106.845 24 106.328 23.8613 105.827 23.68C105.336 23.4987 104.877 23.2853 104.451 23.04C104.035 22.7947 103.667 22.528 103.347 22.24L104.259 20.736C104.376 20.5547 104.515 20.416 104.674 20.32C104.834 20.224 105.037 20.176 105.283 20.176C105.528 20.176 105.757 20.2453 105.971 20.384C106.195 20.5227 106.451 20.672 106.739 20.832C107.027 20.992 107.363 21.1413 107.747 21.28C108.141 21.4187 108.637 21.488 109.235 21.488C109.704 21.488 110.104 21.4347 110.435 21.328C110.776 21.2107 111.053 21.0613 111.267 20.88C111.491 20.6987 111.65 20.4907 111.747 20.256C111.853 20.0107 111.907 19.76 111.907 19.504C111.907 19.12 111.789 18.8053 111.555 18.56C111.331 18.3147 111.027 18.1013 110.642 17.92C110.269 17.7387 109.837 17.5787 109.347 17.44C108.867 17.2907 108.371 17.1307 107.859 16.96C107.357 16.7893 106.861 16.592 106.371 16.368C105.891 16.1333 105.459 15.84 105.075 15.488C104.701 15.136 104.397 14.704 104.163 14.192C103.939 13.68 103.827 13.0613 103.827 12.336C103.827 11.664 103.96 11.024 104.227 10.416C104.493 9.808 104.883 9.28 105.395 8.832C105.917 8.37333 106.563 8.01067 107.331 7.744C108.109 7.46667 109.005 7.328 110.019 7.328C111.149 7.328 112.179 7.51467 113.107 7.888C114.035 8.26133 114.808 8.752 115.427 9.36L114.531 10.784ZM122.529 9.344C123.169 8.74667 123.873 8.26133 124.641 7.888C125.409 7.51467 126.31 7.328 127.345 7.328C128.241 7.328 129.036 7.48267 129.729 7.792C130.422 8.09067 130.998 8.51733 131.457 9.072C131.926 9.616 132.278 10.272 132.513 11.04C132.758 11.7973 132.881 12.6347 132.881 13.552V24H128.929V13.552C128.929 12.5493 128.7 11.776 128.241 11.232C127.782 10.6773 127.084 10.4 126.145 10.4C125.462 10.4 124.822 10.5547 124.225 10.864C123.628 11.1733 123.062 11.5947 122.529 12.128V24H118.577V0.223999H122.529V9.344Z" fill="#314455"/>
</svg>
