<svg width="24" height="24" viewBox="0 0 24 24" fill="none" xmlns="http://www.w3.org/2000/svg">
<path d="M10 21C14.0803 21 17.4471 17.9453 17.9384 13.998C18.0066 13.45 17.5523 13 17 13H11C10.4477 13 10 12.5523 10 12V6C10 5.44772 9.55004 4.99344 9.00199 5.06165C5.05471 5.55286 2 8.9197 2 13C2 17.4183 5.58172 21 10 21Z" stroke="#1C1D21" stroke-width="1.5"/>
<path d="M20.9384 9.00199C20.4878 5.38167 17.6183 2.51217 13.998 2.06165C13.45 1.99344 13 2.44772 13 3V9C13 9.55228 13.4477 10 14 10H20C20.5523 10 21.0066 9.55004 20.9384 9.00199Z" stroke="#1C1D21" stroke-width="1.5"/>
</svg>
